<?xml version="1.0" standalone="no"?>
<!DOCTYPE svg PUBLIC "-//W3C//DTD SVG 1.1//EN" "http://www.w3.org/Graphics/SVG/1.1/DTD/svg11.dtd" >
<svg xmlns="http://www.w3.org/2000/svg">
<metadata></metadata>
<defs>
<font id="BeamieRegular" horiz-adv-x="1425" >
<font-face units-per-em="2048" ascent="1638" descent="-410" />
<missing-glyph horiz-adv-x="708" />
<glyph horiz-adv-x="0" />
<glyph horiz-adv-x="2048" />
<glyph unicode="&#xd;" horiz-adv-x="708" />
<glyph unicode=" "  horiz-adv-x="708" />
<glyph unicode="&#x09;" horiz-adv-x="708" />
<glyph unicode="&#xa0;" horiz-adv-x="708" />
<glyph unicode="0" d="M70 231v502h143v-500q0 -70 18 -135h-147q-14 66 -14 133zM70 733v264q-2 264 187 452.5t456 188.5q266 0 454.5 -187t188.5 -454v-264h-144v262q0 207 -146 353.5t-353 146.5t-353.5 -146.5t-146.5 -353.5v-262h-143zM84 98h147q43 -160 177.5 -262t304.5 -102 t303 102.5t178 261.5h147q-47 -219 -223 -363.5t-405 -144.5t-405.5 144.5t-223.5 363.5zM260 233v500h143v-500q0 -72 31 -135h-153q-20 66 -21 135zM260 733v264q2 186 134 318.5t319 132.5q186 0 319 -132t133 -321v-262h-143v262q0 129 -91 219.5t-219 90.5 t-218.5 -90.5t-90.5 -219.5v-262h-143zM281 98h153q37 -78 113 -126t166 -48t164.5 48t113.5 126h154q-45 -139 -164 -228t-269.5 -89t-269 89t-161.5 228zM451 233v500h143v-500q0 -49 35 -83.5t84 -34.5t83.5 34.5t34.5 83.5v500h144v-500q0 -74 -39 -135h-449 q-37 61 -36 135zM451 733v262q0 109 76.5 185.5t185.5 76.5t185.5 -76.5t76.5 -185.5v-262h-144v262q0 49 -34.5 84t-83.5 35t-84 -35t-35 -84v-262h-143zM487 98h449q-76 -127 -223 -127t-226 127zM641 233v500h143v-500q0 -31 -21.5 -51t-51 -20t-50 20.5t-20.5 50.5z M641 733v262q0 31 20.5 51.5t50.5 20.5t51 -20.5t21 -51.5v-262h-143zM991 98q31 63 31 135v500h143v-502q-2 -70 -20 -133h-154zM1194 98q18 66 18 135v500h144v-502q0 -66 -15 -133h-147z" />
<glyph unicode="1" d="M354 -410v2048h144v-2048h-144zM545 -410v2048h143v-2048h-143zM735 -410v2048h144v-2048h-144zM926 -410v2048h143v-2048h-143z" />
<glyph unicode="2" d="M70 233q0 -266 187 -454.5t454 -188.5h526v144h-524q-207 0 -353.5 146.5t-146.5 352.5q0 207 145 344.5t357 155.5q109 10 184.5 83t75.5 180.5t-77 184t-185 76.5h-525v-143h525q49 0 83.5 -35t34.5 -84t-34.5 -83.5t-83.5 -34.5h-525v-144h119q-238 -193 -237 -500z M188 924h525q29 0 50 21.5t21 51t-21.5 50t-49.5 20.5h-525v-143zM188 1305h525q127 0 218 -90.5t91 -218.5t-90 -219t-217 -91h-4q-186 -2 -318.5 -134t-132.5 -319.5t132 -319.5t321 -132h524v143h-524q-129 0 -219.5 90t-90.5 219t90.5 219.5t219.5 90.5h4q186 0 317 133 t131 320t-133 319.5t-319 132.5h-525v-143zM188 1495h525q207 0 353 -146.5t146 -353.5t-146 -353t-353 -146q-109 0 -185.5 -77t-76.5 -186t76.5 -185.5t185.5 -76.5h524v144h-524q-49 0 -84 34.5t-35 83.5t35 84t84 35h524v144h-121q240 193 240 499q0 266 -188.5 454.5 t-452.5 188.5h-527v-143zM641 232q0 -30 20.5 -50t51.5 -20h524v143h-524q-31 0 -51.5 -21.5t-20.5 -51.5z" />
<glyph unicode="3" d="M129 -29h524q109 0 185.5 77t76.5 174t-51 165q23 8 45 19q53 -78 53.5 -190t-91 -202t-218.5 -90h-524v-143h526q186 2 318.5 134t132.5 318q0 133 -72 244q18 14 37 31q82 -125 82 -275q0 -207 -146.5 -353t-353.5 -146h-524v-144h526q264 -2 452.5 187.5t188.5 455.5 q0 211 -125 381q125 170 125 381q0 266 -188 454.5t-453 188.5h-526v-143h524q207 0 353.5 -146.5t146.5 -353.5t-146.5 -353t-353.5 -146h-524v-144h526q47 0 82 -34.5t35 -84.5q0 -49 -35 -83.5t-84 -34.5h-524v-144zM129 162h524q29 0 50.5 20.5t21.5 50t-21.5 51 t-50.5 21.5h-524v-143zM129 543h526q186 2 318.5 134t132.5 319t-133 319.5t-320 132.5h-524v-143h524q127 0 218.5 -90.5t91.5 -219.5t-91.5 -219t-218.5 -90h-524v-143zM129 733h524q109 0 185.5 77t76.5 185q0 109 -76.5 185.5t-185.5 76.5h-524v-143h524q49 0 84 -35 t35 -84t-35 -83.5t-84 -34.5h-524v-144zM129 924h524q29 0 50.5 21.5t21.5 51t-21.5 50t-50.5 20.5h-524v-143z" />
<glyph unicode="4" d="M70 993v645h143v-643q0 -188 123 -328.5t305 -166.5v49q-164 27 -272.5 152.5t-108.5 293.5v643h143v-643q0 -109 67 -192.5t171 -108.5v49q-84 25 -137 94.5t-53 157.5v643h143v-643q0 -59 47 -94v737h143v-2048h-143v766q-242 27 -406.5 209.5t-164.5 427.5zM831 -410 v2048h144v-2048h-144zM1022 -410v2048h143v-2048h-143zM1212 -410v2048h144v-2048h-144z" />
<glyph unicode="5" d="M70 352v144h643q109 0 185.5 -77t76.5 -186t-77 -185.5t-185 -76.5h-525v144h525q49 0 83.5 34.5t34.5 83.5t-34.5 84t-83.5 35h-643zM70 543v143h643q186 0 319 -133t133 -320.5t-132 -318.5t-320 -133h-525v143h525q127 0 218 90t91 219t-91 219.5t-218 90.5h-643z M70 733v264q0 264 187 452.5t452 188.5h647v-143h-643q-207 0 -353.5 -146.5t-146.5 -353.5v-118h47v118q0 186 131 319.5t318 133.5h647v-143h-643q-129 0 -219.5 -90.5t-90.5 -219.5v-118h48v118q0 109 75.5 185.5t182.5 76.5h647v-143h-643q-49 0 -84 -35t-35 -84v-118 h47v118q0 31 20.5 51.5t50.5 20.5t51 -20.5t21 -51.5v-123q242 -27 407 -210t165 -439t-188.5 -445.5t-452.5 -187.5h-527v144h525q207 0 353 146.5t146 352.5q0 207 -146 353.5t-353 146.5h-643zM188 162v143h525q29 0 50 -21.5t21 -51.5t-21 -50t-50 -20h-525z" />
<glyph unicode="6" d="M70 233v764q-2 264 187 452.5t456 188.5q266 0 454.5 -187t188.5 -454v-2h-144q0 207 -146 353.5t-353 146.5t-353.5 -146.5t-146.5 -353.5v-358q23 29 47 53v307q2 186 134.5 318.5t318.5 132.5t319 -132t133 -321h-143q0 129 -91 219.5t-219 90.5t-218.5 -90.5 t-90.5 -219.5v-198q23 12 48 24v174q0 109 76.5 185.5t185.5 76.5t185.5 -76.5t76.5 -185.5h-144q0 49 -34.5 84t-83.5 35t-84 -35t-35 -84v-129q23 4 47 6v123q0 31 20.5 51.5t50.5 20.5t51 -20.5t21 -51.5v-123q242 -27 407 -209t165 -439t-188.5 -445.5t-454.5 -188.5 t-454.5 188.5t-188.5 454.5zM213 233q0 -207 146.5 -353t353.5 -146t353 146.5t146 352.5q0 207 -146 353.5t-353 146.5t-353.5 -146.5t-146.5 -353.5zM260 232q0 187 132 320.5t319.5 133.5t320.5 -133t133 -320.5t-133 -319.5t-320 -132t-319.5 132t-132.5 319zM403 233 q0 -129 90.5 -219t218.5 -90t219 90t91 219t-91 219.5t-219 90.5t-218.5 -90.5t-90.5 -219.5zM451 233q0 109 76.5 186t185.5 77t185.5 -77t76.5 -186t-77 -185.5t-185 -76.5q-109 0 -185.5 77t-76.5 185zM594 233q0 -49 35 -83.5t84 -34.5t83.5 34.5t34.5 83.5t-34.5 84 t-83.5 35t-84 -34.5t-35 -84.5zM641 232.5q0 29.5 20.5 51t50.5 21.5t51 -21.5t21 -51.5t-21 -50t-51 -20t-50.5 20.5t-20.5 50z" />
<glyph unicode="7" d="M70 1114v143h645q109 0 184.5 -76.5t75.5 -185.5v-1405h-144v1405q0 49 -34.5 84t-83.5 35h-643zM70 1305v143h645q186 0 318 -133t132 -320v-1405h-143v1405q0 129 -91 219.5t-218 90.5h-643zM70 1495v143h647q264 0 451.5 -188t187.5 -453v-1407h-144v1405 q0 207 -146 353.5t-353 146.5h-643zM641 -410v1405q0 31 20.5 51.5t50.5 20.5t51 -20.5t21 -51.5v-1405h-143z" />
<glyph unicode="8" d="M70 233q0 211 125 381q-125 170 -125 381q0 266 188 454.5t455 188.5q266 0 454.5 -188t188.5 -455q0 -211 -125 -381q125 -170 125 -381q0 -266 -188.5 -454.5t-454.5 -188.5t-454.5 188.5t-188.5 454.5zM213 233q0 -207 146.5 -353t353.5 -146t353 146.5t146 352.5 q0 150 -82 275q-18 -16 -36 -31q72 -111 71 -244q0 -188 -133 -320t-320 -132t-319.5 132t-132.5 320q0 133 72 244q-20 14 -39 31q-80 -125 -80 -275zM213 995q0 -207 146.5 -353t353.5 -146t353 146t146 353t-146 353.5t-353 146.5t-353.5 -146.5t-146.5 -353.5zM260 996 q0 187 132 319.5t319.5 132.5t320.5 -132t133 -319.5t-133 -320.5t-320 -133t-319.5 133t-132.5 320zM403 995q0 -129 90.5 -219t218.5 -90t219 90t91 219t-91 219.5t-219 90.5t-218.5 -90.5t-90.5 -219.5zM403.5 216q-0.5 -112 90 -202t218.5 -90t219 90t91 219 q0 94 -53 173q-23 -10 -45 -19q51 -68 51 -165.5t-76.5 -174t-185.5 -76.5t-185.5 77t-76.5 174t51 165q-25 8 -47 19q-51 -78 -51.5 -190zM451 995q0 109 76.5 185.5t185.5 76.5t185.5 -76.5t76.5 -185.5t-77 -185.5t-185 -76.5q-109 0 -185.5 77t-76.5 185zM594 233 q0 -49 35 -83.5t84 -34.5t83.5 34.5t34.5 83.5t-34.5 84t-83.5 35t-84 -34.5t-35 -84.5zM594 995q0 -49 35 -83.5t84 -34.5t83.5 34.5t34.5 83.5t-34.5 84t-83.5 35t-84 -35t-35 -84zM641 232.5q0 29.5 20.5 51t50.5 21.5t51 -21.5t21 -51.5t-21 -50t-51 -20t-50.5 20.5 t-20.5 50zM641 996.5q0 29.5 20.5 50t50.5 20.5t51 -20.5t21 -50.5t-21 -51t-51 -21t-50.5 21.5t-20.5 51z" />
<glyph unicode="9" d="M70 231v2h143q0 -207 146.5 -353t353.5 -146t353 146.5t146 352.5v359q-23 -29 -47 -53v-308q-2 -186 -134 -318t-319 -132t-319.5 132t-132.5 320h143q0 -129 90.5 -219t218.5 -90t219 90t91 219v199q-23 -12 -47 -24v-175q0 -109 -77 -185.5t-185 -76.5 q-109 0 -185.5 77t-76.5 185h143q0 -49 35 -83.5t84 -34.5t83.5 34.5t34.5 83.5v129q-23 -4 -47 -6v-123q0 -31 -21.5 -51t-51 -20t-50 20.5t-20.5 50.5v123q-244 27 -407.5 210.5t-163.5 439t188 444t455 188.5q266 0 454.5 -188t188.5 -455v-764q0 -264 -188.5 -452.5 t-454.5 -188.5t-454.5 187.5t-188.5 453.5zM213 995q0 -207 146.5 -353t353.5 -146t353 146t146 353t-146 353.5t-353 146.5t-353.5 -146.5t-146.5 -353.5zM260 996q0 187 132.5 319.5t319.5 132.5t320 -132t133 -319.5t-133 -320.5t-320 -133t-319.5 133t-132.5 320z M403 995q0 -129 90.5 -219t218.5 -90t219 90t91 219t-91 219.5t-219 90.5t-218.5 -90.5t-90.5 -219.5zM451 995q0 109 76.5 185.5t185.5 76.5t185.5 -76.5t76.5 -185.5t-76.5 -185.5t-185.5 -76.5t-185.5 77t-76.5 185zM594 995q0 -49 35 -83.5t84 -34.5t83.5 34.5 t34.5 83.5t-34.5 84t-83.5 35t-84 -35t-35 -84zM641 996.5q0 29.5 20.5 50t50.5 20.5t51 -20.5t21 -50.5t-21.5 -51t-51 -21t-50 21.5t-20.5 51z" />
<glyph unicode="A" horiz-adv-x="1415" d="M0 -410v1407v6q0 261 188 447q190 188 455 188q266 0 454.5 -187t188.5 -454v-264h-571v-47h571v-143h-571v-47h571v-906h-143v762h-47v-762h-144v762h-47v-762h-143v762h-47v-762h-144v1405q0 31 20.5 51.5t50.5 20.5t51.5 -20.5t21.5 -51.5v-118h47v118q0 49 -35 84 t-84 35t-84 -35t-35 -84v-1405h-143v1405q0 109 77 185.5t185 76.5q109 0 185.5 -76.5t76.5 -185.5v-118h47v118q0 129 -90 219.5t-219 90.5t-219 -90.5t-90 -219.5v-1405h-144v1407q2 186 134.5 318.5t318.5 132.5t319.5 -132t133.5 -321v-118h47v118q0 207 -146.5 353.5 t-353.5 146.5t-353.5 -146.5t-146.5 -353.5v-1405h-143z" />
<glyph unicode="B" horiz-adv-x="1284" d="M0 -410v2048h143v-2048h-143zM190 -410v2048h144v-2048h-144zM381 -410v2048h143q264 0 452.5 -188t188.5 -455q0 -211 -125 -381q125 -170 125 -381q0 -266 -188.5 -454.5t-452.5 -188.5h-143zM524 -29v-47q127 0 217 91t90 201.5t-53 189.5q-22 -11 -45 -19 q51 -68 51 -165.5t-76.5 -174t-183.5 -76.5zM524 115q47 0 82 34.5t35 83.5t-35 84t-82 35v-47q70 -2 70 -72t-70 -71v-47zM524 -219v-47q205 0 351.5 146.5t146.5 352.5q0 150 -82 275q-19 -17 -37 -31q72 -111 72 -244q0 -186 -132 -319t-319 -133zM524 496 q205 0 351.5 146t146.5 353t-146.5 353.5t-351.5 146.5v-47q186 0 318.5 -133t132.5 -320q0 -186 -132 -319t-319 -133v-47zM524 686q127 0 217 91t90 218t-90 218.5t-217 91.5v-48q106 0 183 -76.5t77 -185.5t-76.5 -184.5t-183.5 -77.5v-47zM524 877q47 0 82 34.5t35 83.5 t-35 84t-82 35v-47q70 -2 70 -72t-70 -71v-47z" />
<glyph unicode="C" horiz-adv-x="1406" d="M0 231v766v6q0 261 188 447q190 188 455 188q266 0 454.5 -187t188.5 -454v-264h-571v-47h571v-143h-571v-47h571v-265v-6q0 -261 -188 -447q-190 -188 -455 -188q-266 0 -454.5 187.5t-188.5 453.5zM143 233q0 -207 146.5 -353t353.5 -146t353.5 146.5t146.5 352.5v119 h-47v-121q-2 -186 -134.5 -318t-319.5 -132t-319.5 132t-132.5 320v764q2 186 134.5 318.5t318.5 132.5t319.5 -132t133.5 -321v-118h47v118q0 207 -146.5 353.5t-353.5 146.5t-353.5 -146.5t-146.5 -353.5v-762zM334 233q0 -129 90 -219t219 -90t219 90t90 219v119h-47 v-119q0 -109 -76.5 -185.5t-185.5 -76.5t-185.5 77t-76.5 185v762q0 109 77 185.5t185 76.5q109 0 185.5 -76.5t76.5 -185.5v-118h47v118q0 129 -90 219.5t-219 90.5t-219 -90.5t-90 -219.5v-762zM524 233q0 -49 35 -83.5t84 -34.5t84 34.5t35 83.5v119h-47v-119 q0 -31 -21.5 -51t-51.5 -20t-50.5 20.5t-20.5 50.5v762q0 31 20.5 51.5t50.5 20.5t51.5 -20.5t21.5 -51.5v-118h47v118q0 49 -35 84t-84 35t-84 -35t-35 -84v-762z" />
<glyph unicode="D" horiz-adv-x="1406" d="M0 -410v2048h143v-2048h-143zM190 -410v2048h144v-2048h-144zM381 -410v2048h143v-2048h-143zM571 -410v2048h72q266 0 454.5 -187t188.5 -454v-766v-6q0 -261 -188 -447q-190 -188 -455 -188h-72zM715 -18v-50q102 25 169.5 109t67.5 192v762q0 109 -67.5 192.5 t-169.5 108.5v-49q84 -23 137 -93.5t53 -158.5v-762q0 -88 -53 -158.5t-137 -92.5zM715 139q47 35 47 94v762q0 60 -47 95v-951zM715 -213v-49q182 27 305 167t123 328v762q0 188 -123 328.5t-305 167.5v-49q164 -25 272.5 -152t108.5 -295v-764q-2 -168 -110.5 -293.5 t-270.5 -150.5z" />
<glyph unicode="E" horiz-adv-x="1298" d="M0 233q0 211 125 381q-125 170 -125 381q0 266 187.5 454.5t453.5 188.5h526v-143h-524q-207 0 -353.5 -146.5t-146.5 -353.5t146.5 -353t353.5 -146h524v-144h-526q-49 0 -83 -34.5t-34 -84.5q0 -49 35 -83.5t84 -34.5h524v-144h-524q-109 0 -185.5 77t-76.5 174t51 165 q-25 8 -47 19q-51 -78 -51 -190t90 -202t219 -90h524v-143h-526q-186 2 -318.5 134t-132.5 318q0 133 72 244q-20 14 -37 31q-82 -125 -82 -275q0 -207 146.5 -353t353.5 -146h524v-144h-526h-6q-261 0 -447 188q-188 190 -188 455zM190 996q0 187 132.5 319.5t320.5 132.5 h524v-143h-524q-129 0 -219 -90.5t-90 -219.5t90 -219t219 -90h524v-143h-526q-186 2 -318.5 134t-132.5 319zM381 995q0 109 77 185.5t185 76.5h524v-143h-524q-49 0 -84 -35t-35 -84t35 -83.5t84 -34.5h524v-144h-524q-109 0 -185.5 77t-76.5 185zM571 232.5 q0 29.5 20.5 51t51.5 21.5h524v-143h-524q-31 0 -51.5 20.5t-20.5 50zM571 996.5q0 29.5 20.5 50t51.5 20.5h524v-143h-524q-31 0 -51.5 21.5t-20.5 51z" />
<glyph unicode="F" horiz-adv-x="1286" d="M0 995q0 266 187.5 454.5t453.5 188.5h526v-143h-524q-207 0 -353.5 -146.5t-146.5 -353.5t146.5 -353t353.5 -146h524v-144h-254v-762h-143v762h-47v-762h-143v766q-25 2 -48 6v-772h-143v816q-25 10 -47 22v-838h-143v940q-25 25 -47 52v-992h-144v1305q-8 49 -8 100z M190 996q0 187 132.5 319.5t320.5 132.5h524v-143h-524q-129 0 -219 -90.5t-90 -219.5t90 -219t219 -90h524v-143h-526q-186 2 -318.5 134t-132.5 319zM381 995q0 109 77 185.5t185 76.5h524v-143h-524q-49 0 -84 -35t-35 -84t35 -83.5t84 -34.5h524v-144h-524 q-109 0 -185.5 77t-76.5 185zM571 996.5q0 29.5 20.5 50t51.5 20.5h524v-143h-524q-31 0 -51.5 21.5t-20.5 51z" />
<glyph unicode="G" horiz-adv-x="1415" d="M0 231v766v6q0 260 188 447q189 188 455 188t454.5 -187t188.5 -454v-264h-571v-47h571v-143h-571v-47h571v-906h-143v762h-47v-762h-144v762h-47v-762h-143v11q-59 -10 -119 -11q-266 0 -454.5 187.5t-188.5 453.5zM143 233q0 -207 146.5 -353t353.5 -146q61 0 119 14 v49q-57 -16 -119 -16q-188 0 -320.5 132t-132.5 320v764q2 186 134.5 318.5t318.5 132.5t319.5 -132t133.5 -321v-118h47v118q0 207 -146.5 353.5t-353.5 146.5t-353.5 -146.5t-146.5 -353.5v-762zM334 233q0 -129 90 -219t219 -90q61 0 119 23v53q-55 -29 -119 -29 q-109 0 -185.5 77t-76.5 185v762q0 109 77 185.5t185 76.5q109 0 185.5 -76.5t76.5 -185.5v-118h47v118q0 129 -90 219.5t-219 90.5t-219 -90.5t-90 -219.5v-762zM524 233q0 -49 35 -83.5t84 -34.5t84 34.5t35 83.5v119h-47v-119q0 -31 -21.5 -51t-51.5 -20t-50.5 20.5 t-20.5 50.5v762q0 31 20.5 51.5t50.5 20.5t51.5 -20.5t21.5 -51.5v-118h47v118q0 49 -35 84t-84 35t-84 -35t-35 -84v-762z" />
<glyph unicode="H" d="M0 -410v2048h143v-2048h-143zM190 -410v2048h144v-2048h-144zM381 -410v2048h143v-2048h-143zM571 -410v2048h144v-761h47v761h143v-761h47v761h144v-761h47v761h143v-905h-571v-47h571v-143h-571v-47h571v-906h-143v762h-47v-762h-144v762h-47v-762h-143v762h-47v-762 h-144z" />
<glyph unicode="I" horiz-adv-x="854" d="M0 -410v2048h143v-2048h-143zM190 -410v2048h144v-2048h-144zM381 -410v2048h143v-2048h-143zM571 -410v2048h144v-2048h-144z" />
<glyph unicode="J" horiz-adv-x="1417" d="M0 231v265h571v47h-571v143h571v47h-571v144h571v761h144v-1405q0 -31 -21.5 -51t-51.5 -20t-50.5 20.5t-20.5 50.5v119h-47v-119q0 -49 35 -83.5t84 -34.5t84 34.5t35 83.5v1405h143v-1405q0 -109 -76.5 -185.5t-185.5 -76.5t-185.5 77t-76.5 185v119h-47v-119 q0 -129 90 -219t219 -90t219 90t90 219v1405h144v-1407q-2 -186 -134.5 -318t-319.5 -132t-319.5 132t-132.5 320v119h-47v-119q0 -207 146.5 -353t353.5 -146t353.5 146.5t146.5 352.5v1405h143v-1407q0 -264 -188.5 -452.5t-454.5 -188.5t-454.5 187.5t-188.5 453.5z" />
<glyph unicode="K" horiz-adv-x="1421" d="M0 -410v2048h143v-2048h-143zM190 -410v2048h144v-2048h-144zM381 -410v2048h143v-643q0 -49 35 -83.5t84 -34.5t84 34.5t35 83.5v643h143v-643q0 -109 -76.5 -185.5t-185.5 -76.5q-63 0 -119 29v-51q57 -25 119 -25q129 0 219 91t90 218v643h144v-645 q-2 -186 -134.5 -318t-318.5 -132q-61 0 -119 16v-49q57 -14 119 -14q207 0 353.5 146t146.5 353v643h143v-645q0 -207 -125 -379q125 -170 125 -378v-646h-143v643q0 150 -82 275q-18 -16 -37 -31q72 -111 72 -244v-643h-144v643q0 94 -53 173q-20 -10 -45 -17 q51 -70 51 -156v-643h-143v643q0 49 -35 84t-84 35t-84 -34.5t-35 -84.5v-643h-143zM571 233q0 29 21.5 50.5t51.5 21.5t50.5 -21.5t20.5 -50.5v-643h-144v643zM571 995v643h144v-643q0 -29 -21.5 -50t-51.5 -21t-50.5 21.5t-20.5 49.5z" />
<glyph unicode="L" horiz-adv-x="1331" d="M0 231v1407h143v-1405q0 -207 146.5 -353t353.5 -146h643v-144h-647q-264 0 -451.5 188.5t-187.5 452.5zM190 233v1405h144v-1405q0 -129 90 -219t219 -90h643v-143h-645q-188 0 -319.5 133t-131.5 319zM381 233v1405h143v-1405q0 -49 35 -83.5t84 -34.5h643v-144h-647 q-106 0 -182 77t-76 185zM571 233v1405h144v-1405q0 -31 -21.5 -51t-51.5 -20t-50.5 20.5t-20.5 50.5z" />
<glyph unicode="M" horiz-adv-x="2177" d="M0 -410v1407v6q0 261 188 447q190 188 455 188q211 0 381 -125q170 125 381 125q266 0 454.5 -187t188.5 -454v-1407h-143v1405q0 207 -146.5 353.5t-353.5 146.5q-150 0 -275 -82q16 -16 31 -37q111 72 244 72q188 0 320.5 -132t132.5 -321v-1405h-144v1405 q0 129 -90 219.5t-219 90.5q-94 0 -172 -52q10 -23 18 -47q68 51 165.5 51t174 -76.5t76.5 -185.5v-1405h-143v1405q0 49 -35 84t-84 35t-84 -35t-35 -84v-1405h-143v1405q0 207 -146.5 353.5t-353.5 146.5t-353.5 -146.5t-146.5 -353.5v-1405h-143zM190 -410v1407 q2 186 134.5 318.5t318.5 132.5t319.5 -132t133.5 -321v-1405h-144v1405q0 129 -90 219.5t-219 90.5t-219 -90.5t-90 -219.5v-1405h-144zM381 -410v1405q0 109 77 185.5t185 76.5q109 0 185.5 -76.5t76.5 -185.5v-1405h-143v1405q0 49 -35 84t-84 35t-84 -35t-35 -84v-1405 h-143zM571 -410v1405q0 31 20.5 51.5t50.5 20.5t51.5 -20.5t21.5 -51.5v-1405h-144zM1286 -410v1405v-1405zM1333 -410v1405q0 31 21.5 51.5t51.5 20.5t50.5 -20.5t20.5 -51.5v-1405h-144z" />
<glyph unicode="N" horiz-adv-x="1415" d="M0 -410v1407v6q0 261 188 447q190 188 455 188q266 0 454.5 -187t188.5 -454v-1407h-143v1405q0 207 -146.5 353.5t-353.5 146.5t-353.5 -146.5t-146.5 -353.5v-1405h-143zM190 -410v1407q2 186 134.5 318.5t318.5 132.5t319.5 -132t133.5 -321v-1405h-144v1405 q0 129 -90 219.5t-219 90.5t-219 -90.5t-90 -219.5v-1405h-144zM381 -410v1405q0 109 77 185.5t185 76.5q109 0 185.5 -76.5t76.5 -185.5v-1405h-143v1405q0 49 -35 84t-84 35t-84 -35t-35 -84v-1405h-143zM571 -410v1405q0 31 20.5 51.5t50.5 20.5t51.5 -20.5t21.5 -51.5 v-1405h-144z" />
<glyph unicode="O" horiz-adv-x="1406" d="M0 231v502h143v-500q0 -70 19 -135h-148q-14 66 -14 133zM0 733v264v6q0 261 188 447q190 188 455 188q266 0 454.5 -187t188.5 -454v-264h-143v262q0 207 -146.5 353.5t-353.5 146.5t-353.5 -146.5t-146.5 -353.5v-262h-143zM14 98h148q45 -160 178 -262t303 -102 t303 102.5t178 261.5h148q-47 -219 -223.5 -363.5t-405.5 -144.5t-405.5 144.5t-223.5 363.5zM190 233v500h144v-500q0 -72 31 -135h-154q-20 66 -21 135zM190 733v264q2 186 134.5 318.5t318.5 132.5t319.5 -132t133.5 -321v-262h-144v262q0 129 -90 219.5t-219 90.5 t-219 -90.5t-90 -219.5v-262h-144zM211 98h154q39 -78 113.5 -126t164.5 -48t165 48t114 126h153q-43 -139 -162.5 -228t-269.5 -89t-269.5 89t-162.5 228zM381 233v500h143v-500q0 -49 35 -83.5t84 -34.5t84 34.5t35 83.5v500h143v-500q0 -74 -37 -135h-450q-37 61 -37 135 zM381 733v262q0 109 77 185.5t185 76.5q109 0 185.5 -76.5t76.5 -185.5v-262h-143v262q0 49 -35 84t-84 35t-84 -35t-35 -84v-262h-143zM418 98h450q-78 -127 -225 -127t-225 127zM571 233v500h144v-500q0 -31 -21.5 -51t-51.5 -20t-50.5 20.5t-20.5 50.5zM571 733v262 q0 31 20.5 51.5t50.5 20.5t51.5 -20.5t21.5 -51.5v-262h-144zM922 98q31 63 30 135v500h144v-502q0 -70 -21 -133h-153zM1124 98q18 66 19 135v500h143v-502q0 -66 -14 -133h-148z" />
<glyph unicode="P" horiz-adv-x="1234" d="M0 -410v2048h143v-2048h-143zM190 -410v2048h144v-2048h-144zM381 -410v2048h143q264 0 452.5 -188t188.5 -455q0 -266 -188.5 -454.5t-452.5 -188.5v-762h-143zM524 496q205 0 351.5 146t146.5 353t-146.5 353.5t-351.5 146.5v-47q186 0 318.5 -133t132.5 -320 q0 -186 -132 -319t-319 -133v-47zM524 686q127 0 217 91t90 218t-90 218.5t-217 91.5v-48q106 0 183 -76.5t77 -185.5t-76.5 -184.5t-183.5 -77.5v-47zM524 877q47 0 82 34.5t35 83.5t-35 84t-82 35v-47q70 -2 70 -72t-70 -71v-47z" />
<glyph unicode="Q" horiz-adv-x="1411" d="M0 231v766v6q0 260 188 447q189 188 455 188t454.5 -187t188.5 -454v-766q0 -57 -10 -116h10v-144h-647q-106 0 -182 77t-76 185v762q0 109 77 185.5t185 76.5q109 0 185.5 -76.5t76.5 -185.5v-762q0 -63 -28 -118h51q25 57 24 118v762q0 129 -90 219.5t-219 90.5 t-219 -90.5t-90 -219.5v-762q0 -127 89 -218t218 -91h645v-143h-647q-186 0 -317.5 133t-131.5 319v764q2 186 134.5 318.5t318.5 132.5t319.5 -132t133.5 -321v-764q0 -61 -17 -116h49q14 57 15 118v762q0 207 -146.5 353.5t-353.5 146.5t-353.5 -146.5t-146.5 -353.5v-762 q0 -207 145.5 -353t352.5 -146h645v-144h-647q-264 0 -451.5 188.5t-187.5 452.5zM524 233q0 -49 35 -83.5t84 -34.5t84 34.5t35 83.5v762q0 49 -35 84t-84 35t-84 -35t-35 -84v-762zM571 233v762q0 31 20.5 51.5t50.5 20.5t51.5 -20.5t21.5 -51.5v-762q0 -31 -21.5 -51 t-51.5 -20t-50.5 20.5t-20.5 50.5z" />
<glyph unicode="R" horiz-adv-x="1271" d="M0 -410v2048h143v-2048h-143zM190 -410v2048h144v-2048h-144zM381 -410v2048h143q264 0 452.5 -188t188.5 -455q0 -156 -71 -295v-1110h-144v926q-22 -21 -47 -39v-887h-143v807q-23 -8 -47 -16v-791h-144v764q-23 -2 -45 -2v-762h-143zM524 496q205 0 351.5 146 t146.5 353t-146.5 353.5t-351.5 146.5v-47q186 0 318.5 -133t132.5 -320q0 -186 -132 -319t-319 -133v-47zM524 686q127 0 217 91t90 218t-90 218.5t-217 91.5v-48q106 0 183 -76.5t77 -185.5t-76.5 -184.5t-183.5 -77.5v-47zM524 877q47 0 82 34.5t35 83.5t-35 84t-82 35 v-47q70 -2 70 -72t-70 -71v-47z" />
<glyph unicode="S" horiz-adv-x="1402" d="M0 995q0 266 187.5 454.5t453.5 188.5h526v-143h-524q-207 0 -353.5 -146.5t-146.5 -353.5t146.5 -353t353.5 -146q109 0 185.5 -77t76.5 -186t-76.5 -185.5t-185.5 -76.5h-524v144h524q49 0 84 34.5t35 83.5t-35 84t-84 35h-524v144h121q-240 193 -240 499zM119 -76h524 q129 0 219 90t90 219t-90 219.5t-219 90.5h-4q-186 0 -317.5 133t-131.5 320t132.5 319.5t320.5 132.5h524v-143h-524q-129 0 -219 -90.5t-90 -218.5t90 -219t217 -91h4q186 -2 318.5 -134t132.5 -319.5t-133.5 -319.5t-319.5 -132h-524v143zM119 162v143h524 q29 0 50.5 -21.5t21.5 -51.5t-21.5 -50t-50.5 -20h-524zM119 -266h524q207 0 353.5 146.5t146.5 352.5q0 207 -146.5 344.5t-355.5 155.5q-109 10 -184.5 83t-75.5 180.5t77 184t185 76.5h524v-143h-524q-49 0 -84 -35t-35 -84t35 -83.5t84 -34.5h524v-144h-120 q239 -192 239 -497q0 -269 -188.5 -457.5t-452.5 -188.5h-526v144zM571 996.5q0 29.5 20.5 50t51.5 20.5h524v-143h-524q-31 0 -51.5 21.5t-20.5 51z" />
<glyph unicode="T" horiz-adv-x="1400" d="M0 924v143h1286v-143h-190v-1334h-144v1334h-47v-1334h-143v1334h-47v-1334h-144v1334h-47v-1334h-143v1334h-47v-1334h-144v1334h-190zM0 1114v143h1286v-143h-1286zM0 1305v143h1286v-143h-1286zM0 1495v143h1286v-143h-1286z" />
<glyph unicode="U" horiz-adv-x="1417" d="M0 231v1407h143v-1405q0 -207 146.5 -353t353.5 -146t353.5 146.5t146.5 352.5v1405h143v-1407v-6q0 -261 -188 -447q-190 -188 -455 -188q-266 0 -454.5 187.5t-188.5 453.5zM190 233v1405h144v-1405q0 -129 90 -219t219 -90t219 90t90 219v1405h144v-1407 q-2 -186 -134.5 -318t-319.5 -132t-319.5 132t-132.5 320zM381 233v1405h143v-1405q0 -49 35 -83.5t84 -34.5t84 34.5t35 83.5v1405h143v-1405q0 -109 -76.5 -185.5t-185.5 -76.5t-185.5 77t-76.5 185zM571 233v1405h144v-1405q0 -31 -21.5 -51t-51.5 -20t-50.5 20.5 t-20.5 50.5z" />
<glyph unicode="V" horiz-adv-x="1417" d="M0 -410v2048h143v-2048h-143zM190 -410v2048h144v-2048h-144zM381 -410v2048h143v-2048h-143zM571 -410v2048h144v-1499q47 35 47 94v1405h143v-1405q0 -88 -53 -158.5t-137 -92.5v-50q102 25 169.5 108.5t67.5 192.5v1405h144v-1407q-2 -168 -110.5 -293.5 t-270.5 -150.5v-49q182 27 305 167t123 328v1405h143v-1407q0 -267 -188 -455q-187 -187 -449 -186h-6h-72z" />
<glyph unicode="W" horiz-adv-x="2179" d="M0 231v-6q0 -261 188 -447q190 -188 455 -188q211 0 381 125q170 -125 381 -125q266 0 454.5 187.5t188.5 453.5v1407h-143v-1405q0 -207 -146.5 -353t-353.5 -146q-150 0 -275 82q16 16 31 37q111 -72 244 -72q188 0 320.5 132t132.5 320v1405h-144v-1405 q0 -129 -90 -219t-219 -90q-94 0 -172 51q10 23 18 48q67 -51 165 -51q1 0 2 -1q96 0 172 77t77 185v1405h-143v-1405q0 -49 -35 -83.5t-84 -34.5t-84 34.5t-35 83.5v1405h-143v-1405q0 -207 -146.5 -353t-353.5 -146t-353.5 146.5t-146.5 352.5v1405h-143v-1407zM190 231 q2 -186 134.5 -318t318.5 -132t319.5 132t133.5 320v1405h-144v-1405q0 -129 -90 -219t-219 -90t-219 90t-90 219v1405h-144v-1407zM381 233q0 -109 77 -185.5t185 -76.5q109 0 185.5 77t76.5 185v1405h-143v-1405q0 -49 -35 -83.5t-84 -34.5t-84 34.5t-35 83.5v1405h-143 v-1405zM571 233q0 -31 20.5 -51t50.5 -20t51.5 20.5t21.5 50.5v1405h-144v-1405zM1286 233v1405v-1405zM1333 233q0 -31 21.5 -51t51.5 -20t50.5 20.5t20.5 50.5v1405h-144v-1405z" />
<glyph unicode="X" horiz-adv-x="1421" d="M0 236q0 207 125 378q-125 170 -125 379v645h143v-643q0 -207 146.5 -353t353.5 -146t353.5 146t146.5 353v643h143v-645q0 -209 -125 -379q125 -170 125 -378v-646h-143v643q0 150 -82 275q-18 -16 -37 -31q72 -111 72 -244v-643h-144v643q0 94 -53 173q-20 -10 -45 -17 q51 -70 51 -156v-643h-143v643q0 49 -35 84t-84 35t-84 -34.5t-35 -84.5v-643h-143v643q0 86 51 154q-23 8 -45 19q-53 -78 -53 -173v-643h-144v646q2 133 72 241q-18 14 -37 31q-82 -125 -82 -275v-643h-143v646zM190 995v643h144v-643q0 -127 90 -218t219 -91t219 91 t90 218v643h144v-645q-2 -186 -134.5 -318t-319.5 -132t-319.5 133t-132.5 319zM381 995v643h143v-643q0 -49 35 -83.5t84 -34.5t84 34.5t35 83.5v643h143v-643q0 -109 -76.5 -185.5t-185.5 -76.5t-185.5 77t-76.5 185zM571 233q0 29 21.5 50.5t51.5 21.5t50.5 -21.5 t20.5 -50.5v-643h-144v643zM571 995v643h144v-643q0 -29 -21.5 -50t-51.5 -21t-50.5 21.5t-20.5 49.5z" />
<glyph unicode="Y" d="M0 993v645h143v-643q0 -207 146.5 -353t353.5 -146t353.5 146t146.5 353v643h143v-2048h-143v1002q-23 -29 -47 -53v-949h-144v842q-23 -12 -47 -24v-818h-143v775q-23 -6 -47 -9v-766h-144v766q-242 27 -406.5 209.5t-164.5 427.5zM190 995v643h144v-643q0 -127 90 -218 t219 -91t219 91t90 218v643h144v-645q-2 -186 -134.5 -318t-319.5 -132t-319.5 133t-132.5 319zM381 995v643h143v-643q0 -49 35 -83.5t84 -34.5t84 34.5t35 83.5v643h143v-643q0 -109 -76.5 -185.5t-185.5 -76.5t-185.5 77t-76.5 185zM571 995v643h144v-643 q0 -29 -21.5 -50t-51.5 -21t-50.5 21.5t-20.5 49.5z" />
<glyph unicode="Z" horiz-adv-x="1406" d="M0 -410l248 1334h-248v143h1180l-142 -762h248v-143h-274l-8 -47h282v-144h-309l-10 -47h319v-143h-344l-10 -47h354v-144h-522l246 1334h-47l-248 -1334h-142l246 1334h-47l-248 -1334h-143l248 1334h-47l-248 -1334h-141l245 1334h-47l-248 -1334h-143zM0 1114v143 h1214l-26 -143h-1188zM0 1305v143h1249l-26 -143h-1223zM0 1495v143h1284l-27 -143h-1257z" />
<glyph unicode="a" horiz-adv-x="1415" d="M0 -410v1407v6q0 261 188 447q190 188 455 188q266 0 454.5 -187t188.5 -454v-264h-571v-47h571v-143h-571v-47h571v-906h-143v762h-47v-762h-144v762h-47v-762h-143v762h-47v-762h-144v1405q0 31 20.5 51.5t50.5 20.5t51.5 -20.5t21.5 -51.5v-118h47v118q0 49 -35 84 t-84 35t-84 -35t-35 -84v-1405h-143v1405q0 109 77 185.5t185 76.5q109 0 185.5 -76.5t76.5 -185.5v-118h47v118q0 129 -90 219.5t-219 90.5t-219 -90.5t-90 -219.5v-1405h-144v1407q2 186 134.5 318.5t318.5 132.5t319.5 -132t133.5 -321v-118h47v118q0 207 -146.5 353.5 t-353.5 146.5t-353.5 -146.5t-146.5 -353.5v-1405h-143z" />
<glyph unicode="b" horiz-adv-x="1284" d="M0 -410v2048h143v-2048h-143zM190 -410v2048h144v-2048h-144zM381 -410v2048h143q264 0 452.5 -188t188.5 -455q0 -211 -125 -381q125 -170 125 -381q0 -266 -188.5 -454.5t-452.5 -188.5h-143zM524 -29v-47q127 0 217 91t90 201.5t-53 189.5q-22 -11 -45 -19 q51 -68 51 -165.5t-76.5 -174t-183.5 -76.5zM524 115q47 0 82 34.5t35 83.5t-35 84t-82 35v-47q70 -2 70 -72t-70 -71v-47zM524 -219v-47q205 0 351.5 146.5t146.5 352.5q0 150 -82 275q-19 -17 -37 -31q72 -111 72 -244q0 -186 -132 -319t-319 -133zM524 496 q205 0 351.5 146t146.5 353t-146.5 353.5t-351.5 146.5v-47q186 0 318.5 -133t132.5 -320q0 -186 -132 -319t-319 -133v-47zM524 686q127 0 217 91t90 218t-90 218.5t-217 91.5v-48q106 0 183 -76.5t77 -185.5t-76.5 -184.5t-183.5 -77.5v-47zM524 877q47 0 82 34.5t35 83.5 t-35 84t-82 35v-47q70 -2 70 -72t-70 -71v-47z" />
<glyph unicode="c" horiz-adv-x="1406" d="M0 231v766v6q0 261 188 447q190 188 455 188q266 0 454.5 -187t188.5 -454v-264h-571v-47h571v-143h-571v-47h571v-265v-6q0 -261 -188 -447q-190 -188 -455 -188q-266 0 -454.5 187.5t-188.5 453.5zM143 233q0 -207 146.5 -353t353.5 -146t353.5 146.5t146.5 352.5v119 h-47v-121q-2 -186 -134.5 -318t-319.5 -132t-319.5 132t-132.5 320v764q2 186 134.5 318.5t318.5 132.5t319.5 -132t133.5 -321v-118h47v118q0 207 -146.5 353.5t-353.5 146.5t-353.5 -146.5t-146.5 -353.5v-762zM334 233q0 -129 90 -219t219 -90t219 90t90 219v119h-47 v-119q0 -109 -76.5 -185.5t-185.5 -76.5t-185.5 77t-76.5 185v762q0 109 77 185.5t185 76.5q109 0 185.5 -76.5t76.5 -185.5v-118h47v118q0 129 -90 219.5t-219 90.5t-219 -90.5t-90 -219.5v-762zM524 233q0 -49 35 -83.5t84 -34.5t84 34.5t35 83.5v119h-47v-119 q0 -31 -21.5 -51t-51.5 -20t-50.5 20.5t-20.5 50.5v762q0 31 20.5 51.5t50.5 20.5t51.5 -20.5t21.5 -51.5v-118h47v118q0 49 -35 84t-84 35t-84 -35t-35 -84v-762z" />
<glyph unicode="d" horiz-adv-x="1406" d="M0 -410v2048h143v-2048h-143zM190 -410v2048h144v-2048h-144zM381 -410v2048h143v-2048h-143zM571 -410v2048h72q266 0 454.5 -187t188.5 -454v-766v-6q0 -261 -188 -447q-190 -188 -455 -188h-72zM715 -18v-50q102 25 169.5 109t67.5 192v762q0 109 -67.5 192.5 t-169.5 108.5v-49q84 -23 137 -93.5t53 -158.5v-762q0 -88 -53 -158.5t-137 -92.5zM715 139q47 35 47 94v762q0 60 -47 95v-951zM715 -213v-49q182 27 305 167t123 328v762q0 188 -123 328.5t-305 167.5v-49q164 -25 272.5 -152t108.5 -295v-764q-2 -168 -110.5 -293.5 t-270.5 -150.5z" />
<glyph unicode="e" horiz-adv-x="1298" d="M0 233q0 211 125 381q-125 170 -125 381q0 266 187.5 454.5t453.5 188.5h526v-143h-524q-207 0 -353.5 -146.5t-146.5 -353.5t146.5 -353t353.5 -146h524v-144h-526q-49 0 -83 -34.5t-34 -84.5q0 -49 35 -83.5t84 -34.5h524v-144h-524q-109 0 -185.5 77t-76.5 174t51 165 q-25 8 -47 19q-51 -78 -51 -190t90 -202t219 -90h524v-143h-526q-186 2 -318.5 134t-132.5 318q0 133 72 244q-20 14 -37 31q-82 -125 -82 -275q0 -207 146.5 -353t353.5 -146h524v-144h-526h-6q-261 0 -447 188q-188 190 -188 455zM190 996q0 187 132.5 319.5t320.5 132.5 h524v-143h-524q-129 0 -219 -90.5t-90 -219.5t90 -219t219 -90h524v-143h-526q-186 2 -318.5 134t-132.5 319zM381 995q0 109 77 185.5t185 76.5h524v-143h-524q-49 0 -84 -35t-35 -84t35 -83.5t84 -34.5h524v-144h-524q-109 0 -185.5 77t-76.5 185zM571 232.5 q0 29.5 20.5 51t51.5 21.5h524v-143h-524q-31 0 -51.5 20.5t-20.5 50zM571 996.5q0 29.5 20.5 50t51.5 20.5h524v-143h-524q-31 0 -51.5 21.5t-20.5 51z" />
<glyph unicode="f" horiz-adv-x="1286" d="M0 995q0 266 187.5 454.5t453.5 188.5h526v-143h-524q-207 0 -353.5 -146.5t-146.5 -353.5t146.5 -353t353.5 -146h524v-144h-254v-762h-143v762h-47v-762h-143v766q-25 2 -48 6v-772h-143v816q-25 10 -47 22v-838h-143v940q-25 25 -47 52v-992h-144v1305q-8 49 -8 100z M190 996q0 187 132.5 319.5t320.5 132.5h524v-143h-524q-129 0 -219 -90.5t-90 -219.5t90 -219t219 -90h524v-143h-526q-186 2 -318.5 134t-132.5 319zM381 995q0 109 77 185.5t185 76.5h524v-143h-524q-49 0 -84 -35t-35 -84t35 -83.5t84 -34.5h524v-144h-524 q-109 0 -185.5 77t-76.5 185zM571 996.5q0 29.5 20.5 50t51.5 20.5h524v-143h-524q-31 0 -51.5 21.5t-20.5 51z" />
<glyph unicode="g" horiz-adv-x="1415" d="M0 231v766v6q0 260 188 447q189 188 455 188t454.5 -187t188.5 -454v-264h-571v-47h571v-143h-571v-47h571v-906h-143v762h-47v-762h-144v762h-47v-762h-143v11q-59 -10 -119 -11q-266 0 -454.5 187.5t-188.5 453.5zM143 233q0 -207 146.5 -353t353.5 -146q61 0 119 14 v49q-57 -16 -119 -16q-188 0 -320.5 132t-132.5 320v764q2 186 134.5 318.5t318.5 132.5t319.5 -132t133.5 -321v-118h47v118q0 207 -146.5 353.5t-353.5 146.5t-353.5 -146.5t-146.5 -353.5v-762zM334 233q0 -129 90 -219t219 -90q61 0 119 23v53q-55 -29 -119 -29 q-109 0 -185.5 77t-76.5 185v762q0 109 77 185.5t185 76.5q109 0 185.5 -76.5t76.5 -185.5v-118h47v118q0 129 -90 219.5t-219 90.5t-219 -90.5t-90 -219.5v-762zM524 233q0 -49 35 -83.5t84 -34.5t84 34.5t35 83.5v119h-47v-119q0 -31 -21.5 -51t-51.5 -20t-50.5 20.5 t-20.5 50.5v762q0 31 20.5 51.5t50.5 20.5t51.5 -20.5t21.5 -51.5v-118h47v118q0 49 -35 84t-84 35t-84 -35t-35 -84v-762z" />
<glyph unicode="h" d="M0 -410v2048h143v-2048h-143zM190 -410v2048h144v-2048h-144zM381 -410v2048h143v-2048h-143zM571 -410v2048h144v-761h47v761h143v-761h47v761h144v-761h47v761h143v-905h-571v-47h571v-143h-571v-47h571v-906h-143v762h-47v-762h-144v762h-47v-762h-143v762h-47v-762 h-144z" />
<glyph unicode="i" horiz-adv-x="854" d="M0 -410v2048h143v-2048h-143zM190 -410v2048h144v-2048h-144zM381 -410v2048h143v-2048h-143zM571 -410v2048h144v-2048h-144z" />
<glyph unicode="j" horiz-adv-x="1417" d="M0 231v265h571v47h-571v143h571v47h-571v144h571v761h144v-1405q0 -31 -21.5 -51t-51.5 -20t-50.5 20.5t-20.5 50.5v119h-47v-119q0 -49 35 -83.5t84 -34.5t84 34.5t35 83.5v1405h143v-1405q0 -109 -76.5 -185.5t-185.5 -76.5t-185.5 77t-76.5 185v119h-47v-119 q0 -129 90 -219t219 -90t219 90t90 219v1405h144v-1407q-2 -186 -134.5 -318t-319.5 -132t-319.5 132t-132.5 320v119h-47v-119q0 -207 146.5 -353t353.5 -146t353.5 146.5t146.5 352.5v1405h143v-1407q0 -264 -188.5 -452.5t-454.5 -188.5t-454.5 187.5t-188.5 453.5z" />
<glyph unicode="k" horiz-adv-x="1421" d="M0 -410v2048h143v-2048h-143zM190 -410v2048h144v-2048h-144zM381 -410v2048h143v-643q0 -49 35 -83.5t84 -34.5t84 34.5t35 83.5v643h143v-643q0 -109 -76.5 -185.5t-185.5 -76.5q-63 0 -119 29v-51q57 -25 119 -25q129 0 219 91t90 218v643h144v-645 q-2 -186 -134.5 -318t-318.5 -132q-61 0 -119 16v-49q57 -14 119 -14q207 0 353.5 146t146.5 353v643h143v-645q0 -207 -125 -379q125 -170 125 -378v-646h-143v643q0 150 -82 275q-18 -16 -37 -31q72 -111 72 -244v-643h-144v643q0 94 -53 173q-20 -10 -45 -17 q51 -70 51 -156v-643h-143v643q0 49 -35 84t-84 35t-84 -34.5t-35 -84.5v-643h-143zM571 233q0 29 21.5 50.5t51.5 21.5t50.5 -21.5t20.5 -50.5v-643h-144v643zM571 995v643h144v-643q0 -29 -21.5 -50t-51.5 -21t-50.5 21.5t-20.5 49.5z" />
<glyph unicode="l" horiz-adv-x="1331" d="M0 231v1407h143v-1405q0 -207 146.5 -353t353.5 -146h643v-144h-647q-264 0 -451.5 188.5t-187.5 452.5zM190 233v1405h144v-1405q0 -129 90 -219t219 -90h643v-143h-645q-188 0 -319.5 133t-131.5 319zM381 233v1405h143v-1405q0 -49 35 -83.5t84 -34.5h643v-144h-647 q-106 0 -182 77t-76 185zM571 233v1405h144v-1405q0 -31 -21.5 -51t-51.5 -20t-50.5 20.5t-20.5 50.5z" />
<glyph unicode="m" horiz-adv-x="2177" d="M0 -410v1407v6q0 261 188 447q190 188 455 188q211 0 381 -125q170 125 381 125q266 0 454.5 -187t188.5 -454v-1407h-143v1405q0 207 -146.5 353.5t-353.5 146.5q-150 0 -275 -82q16 -16 31 -37q111 72 244 72q188 0 320.5 -132t132.5 -321v-1405h-144v1405 q0 129 -90 219.5t-219 90.5q-94 0 -172 -52q10 -23 18 -47q68 51 165.5 51t174 -76.5t76.5 -185.5v-1405h-143v1405q0 49 -35 84t-84 35t-84 -35t-35 -84v-1405h-143v1405q0 207 -146.5 353.5t-353.5 146.5t-353.5 -146.5t-146.5 -353.5v-1405h-143zM190 -410v1407 q2 186 134.5 318.5t318.5 132.5t319.5 -132t133.5 -321v-1405h-144v1405q0 129 -90 219.5t-219 90.5t-219 -90.5t-90 -219.5v-1405h-144zM381 -410v1405q0 109 77 185.5t185 76.5q109 0 185.5 -76.5t76.5 -185.5v-1405h-143v1405q0 49 -35 84t-84 35t-84 -35t-35 -84v-1405 h-143zM571 -410v1405q0 31 20.5 51.5t50.5 20.5t51.5 -20.5t21.5 -51.5v-1405h-144zM1286 -410v1405v-1405zM1333 -410v1405q0 31 21.5 51.5t51.5 20.5t50.5 -20.5t20.5 -51.5v-1405h-144z" />
<glyph unicode="n" horiz-adv-x="1415" d="M0 -410v1407v6q0 261 188 447q190 188 455 188q266 0 454.5 -187t188.5 -454v-1407h-143v1405q0 207 -146.5 353.5t-353.5 146.5t-353.5 -146.5t-146.5 -353.5v-1405h-143zM190 -410v1407q2 186 134.5 318.5t318.5 132.5t319.5 -132t133.5 -321v-1405h-144v1405 q0 129 -90 219.5t-219 90.5t-219 -90.5t-90 -219.5v-1405h-144zM381 -410v1405q0 109 77 185.5t185 76.5q109 0 185.5 -76.5t76.5 -185.5v-1405h-143v1405q0 49 -35 84t-84 35t-84 -35t-35 -84v-1405h-143zM571 -410v1405q0 31 20.5 51.5t50.5 20.5t51.5 -20.5t21.5 -51.5 v-1405h-144z" />
<glyph unicode="o" horiz-adv-x="1406" d="M0 231v502h143v-500q0 -70 19 -135h-148q-14 66 -14 133zM0 733v264v6q0 261 188 447q190 188 455 188q266 0 454.5 -187t188.5 -454v-264h-143v262q0 207 -146.5 353.5t-353.5 146.5t-353.5 -146.5t-146.5 -353.5v-262h-143zM14 98h148q45 -160 178 -262t303 -102 t303 102.5t178 261.5h148q-47 -219 -223.5 -363.5t-405.5 -144.5t-405.5 144.5t-223.5 363.5zM190 233v500h144v-500q0 -72 31 -135h-154q-20 66 -21 135zM190 733v264q2 186 134.5 318.5t318.5 132.5t319.5 -132t133.5 -321v-262h-144v262q0 129 -90 219.5t-219 90.5 t-219 -90.5t-90 -219.5v-262h-144zM211 98h154q39 -78 113.5 -126t164.5 -48t165 48t114 126h153q-43 -139 -162.5 -228t-269.5 -89t-269.5 89t-162.5 228zM381 233v500h143v-500q0 -49 35 -83.5t84 -34.5t84 34.5t35 83.5v500h143v-500q0 -74 -37 -135h-450q-37 61 -37 135 zM381 733v262q0 109 77 185.5t185 76.5q109 0 185.5 -76.5t76.5 -185.5v-262h-143v262q0 49 -35 84t-84 35t-84 -35t-35 -84v-262h-143zM418 98h450q-78 -127 -225 -127t-225 127zM571 233v500h144v-500q0 -31 -21.5 -51t-51.5 -20t-50.5 20.5t-20.5 50.5zM571 733v262 q0 31 20.5 51.5t50.5 20.5t51.5 -20.5t21.5 -51.5v-262h-144zM922 98q31 63 30 135v500h144v-502q0 -70 -21 -133h-153zM1124 98q18 66 19 135v500h143v-502q0 -66 -14 -133h-148z" />
<glyph unicode="p" horiz-adv-x="1234" d="M0 -410v2048h143v-2048h-143zM190 -410v2048h144v-2048h-144zM381 -410v2048h143q264 0 452.5 -188t188.5 -455q0 -266 -188.5 -454.5t-452.5 -188.5v-762h-143zM524 496q205 0 351.5 146t146.5 353t-146.5 353.5t-351.5 146.5v-47q186 0 318.5 -133t132.5 -320 q0 -186 -132 -319t-319 -133v-47zM524 686q127 0 217 91t90 218t-90 218.5t-217 91.5v-48q106 0 183 -76.5t77 -185.5t-76.5 -184.5t-183.5 -77.5v-47zM524 877q47 0 82 34.5t35 83.5t-35 84t-82 35v-47q70 -2 70 -72t-70 -71v-47z" />
<glyph unicode="q" horiz-adv-x="1411" d="M0 231v766v6q0 260 188 447q189 188 455 188t454.5 -187t188.5 -454v-766q0 -57 -10 -116h10v-144h-647q-106 0 -182 77t-76 185v762q0 109 77 185.5t185 76.5q109 0 185.5 -76.5t76.5 -185.5v-762q0 -63 -28 -118h51q25 57 24 118v762q0 129 -90 219.5t-219 90.5 t-219 -90.5t-90 -219.5v-762q0 -127 89 -218t218 -91h645v-143h-647q-186 0 -317.5 133t-131.5 319v764q2 186 134.5 318.5t318.5 132.5t319.5 -132t133.5 -321v-764q0 -61 -17 -116h49q14 57 15 118v762q0 207 -146.5 353.5t-353.5 146.5t-353.5 -146.5t-146.5 -353.5v-762 q0 -207 145.5 -353t352.5 -146h645v-144h-647q-264 0 -451.5 188.5t-187.5 452.5zM524 233q0 -49 35 -83.5t84 -34.5t84 34.5t35 83.5v762q0 49 -35 84t-84 35t-84 -35t-35 -84v-762zM571 233v762q0 31 20.5 51.5t50.5 20.5t51.5 -20.5t21.5 -51.5v-762q0 -31 -21.5 -51 t-51.5 -20t-50.5 20.5t-20.5 50.5z" />
<glyph unicode="r" horiz-adv-x="1271" d="M0 -410v2048h143v-2048h-143zM190 -410v2048h144v-2048h-144zM381 -410v2048h143q264 0 452.5 -188t188.5 -455q0 -156 -71 -295v-1110h-144v926q-22 -21 -47 -39v-887h-143v807q-23 -8 -47 -16v-791h-144v764q-23 -2 -45 -2v-762h-143zM524 496q205 0 351.5 146 t146.5 353t-146.5 353.5t-351.5 146.5v-47q186 0 318.5 -133t132.5 -320q0 -186 -132 -319t-319 -133v-47zM524 686q127 0 217 91t90 218t-90 218.5t-217 91.5v-48q106 0 183 -76.5t77 -185.5t-76.5 -184.5t-183.5 -77.5v-47zM524 877q47 0 82 34.5t35 83.5t-35 84t-82 35 v-47q70 -2 70 -72t-70 -71v-47z" />
<glyph unicode="s" horiz-adv-x="1402" d="M0 995q0 266 187.5 454.5t453.5 188.5h526v-143h-524q-207 0 -353.5 -146.5t-146.5 -353.5t146.5 -353t353.5 -146q109 0 185.5 -77t76.5 -186t-76.5 -185.5t-185.5 -76.5h-524v144h524q49 0 84 34.5t35 83.5t-35 84t-84 35h-524v144h121q-240 193 -240 499zM119 -76h524 q129 0 219 90t90 219t-90 219.5t-219 90.5h-4q-186 0 -317.5 133t-131.5 320t132.5 319.5t320.5 132.5h524v-143h-524q-129 0 -219 -90.5t-90 -218.5t90 -219t217 -91h4q186 -2 318.5 -134t132.5 -319.5t-133.5 -319.5t-319.5 -132h-524v143zM119 162v143h524 q29 0 50.5 -21.5t21.5 -51.5t-21.5 -50t-50.5 -20h-524zM119 -266h524q207 0 353.5 146.5t146.5 352.5q0 207 -146.5 344.5t-355.5 155.5q-109 10 -184.5 83t-75.5 180.5t77 184t185 76.5h524v-143h-524q-49 0 -84 -35t-35 -84t35 -83.5t84 -34.5h524v-144h-120 q239 -192 239 -497q0 -269 -188.5 -457.5t-452.5 -188.5h-526v144zM571 996.5q0 29.5 20.5 50t51.5 20.5h524v-143h-524q-31 0 -51.5 21.5t-20.5 51z" />
<glyph unicode="t" horiz-adv-x="1400" d="M0 924v143h1286v-143h-190v-1334h-144v1334h-47v-1334h-143v1334h-47v-1334h-144v1334h-47v-1334h-143v1334h-47v-1334h-144v1334h-190zM0 1114v143h1286v-143h-1286zM0 1305v143h1286v-143h-1286zM0 1495v143h1286v-143h-1286z" />
<glyph unicode="u" horiz-adv-x="1417" d="M0 231v1407h143v-1405q0 -207 146.5 -353t353.5 -146t353.5 146.5t146.5 352.5v1405h143v-1407v-6q0 -261 -188 -447q-190 -188 -455 -188q-266 0 -454.5 187.5t-188.5 453.5zM190 233v1405h144v-1405q0 -129 90 -219t219 -90t219 90t90 219v1405h144v-1407 q-2 -186 -134.5 -318t-319.5 -132t-319.5 132t-132.5 320zM381 233v1405h143v-1405q0 -49 35 -83.5t84 -34.5t84 34.5t35 83.5v1405h143v-1405q0 -109 -76.5 -185.5t-185.5 -76.5t-185.5 77t-76.5 185zM571 233v1405h144v-1405q0 -31 -21.5 -51t-51.5 -20t-50.5 20.5 t-20.5 50.5z" />
<glyph unicode="v" horiz-adv-x="1417" d="M0 -410v2048h143v-2048h-143zM190 -410v2048h144v-2048h-144zM381 -410v2048h143v-2048h-143zM571 -410v2048h144v-1499q47 35 47 94v1405h143v-1405q0 -88 -53 -158.5t-137 -92.5v-50q102 25 169.5 108.5t67.5 192.5v1405h144v-1407q-2 -168 -110.5 -293.5 t-270.5 -150.5v-49q182 27 305 167t123 328v1405h143v-1407q0 -267 -188 -455q-187 -187 -449 -186h-6h-72z" />
<glyph unicode="w" horiz-adv-x="2179" d="M0 231v-6q0 -261 188 -447q190 -188 455 -188q211 0 381 125q170 -125 381 -125q266 0 454.5 187.5t188.5 453.5v1407h-143v-1405q0 -207 -146.5 -353t-353.5 -146q-150 0 -275 82q16 16 31 37q111 -72 244 -72q188 0 320.5 132t132.5 320v1405h-144v-1405 q0 -129 -90 -219t-219 -90q-94 0 -172 51q10 23 18 48q67 -51 165 -51q1 0 2 -1q96 0 172 77t77 185v1405h-143v-1405q0 -49 -35 -83.5t-84 -34.5t-84 34.5t-35 83.5v1405h-143v-1405q0 -207 -146.5 -353t-353.5 -146t-353.5 146.5t-146.5 352.5v1405h-143v-1407zM190 231 q2 -186 134.5 -318t318.5 -132t319.5 132t133.5 320v1405h-144v-1405q0 -129 -90 -219t-219 -90t-219 90t-90 219v1405h-144v-1407zM381 233q0 -109 77 -185.5t185 -76.5q109 0 185.5 77t76.5 185v1405h-143v-1405q0 -49 -35 -83.5t-84 -34.5t-84 34.5t-35 83.5v1405h-143 v-1405zM571 233q0 -31 20.5 -51t50.5 -20t51.5 20.5t21.5 50.5v1405h-144v-1405zM1286 233v1405v-1405zM1333 233q0 -31 21.5 -51t51.5 -20t50.5 20.5t20.5 50.5v1405h-144v-1405z" />
<glyph unicode="x" horiz-adv-x="1421" d="M0 236q0 207 125 378q-125 170 -125 379v645h143v-643q0 -207 146.5 -353t353.5 -146t353.5 146t146.5 353v643h143v-645q0 -209 -125 -379q125 -170 125 -378v-646h-143v643q0 150 -82 275q-18 -16 -37 -31q72 -111 72 -244v-643h-144v643q0 94 -53 173q-20 -10 -45 -17 q51 -70 51 -156v-643h-143v643q0 49 -35 84t-84 35t-84 -34.5t-35 -84.5v-643h-143v643q0 86 51 154q-23 8 -45 19q-53 -78 -53 -173v-643h-144v646q2 133 72 241q-18 14 -37 31q-82 -125 -82 -275v-643h-143v646zM190 995v643h144v-643q0 -127 90 -218t219 -91t219 91 t90 218v643h144v-645q-2 -186 -134.5 -318t-319.5 -132t-319.5 133t-132.5 319zM381 995v643h143v-643q0 -49 35 -83.5t84 -34.5t84 34.5t35 83.5v643h143v-643q0 -109 -76.5 -185.5t-185.5 -76.5t-185.5 77t-76.5 185zM571 233q0 29 21.5 50.5t51.5 21.5t50.5 -21.5 t20.5 -50.5v-643h-144v643zM571 995v643h144v-643q0 -29 -21.5 -50t-51.5 -21t-50.5 21.5t-20.5 49.5z" />
<glyph unicode="y" d="M0 993v645h143v-643q0 -207 146.5 -353t353.5 -146t353.5 146t146.5 353v643h143v-2048h-143v1002q-23 -29 -47 -53v-949h-144v842q-23 -12 -47 -24v-818h-143v775q-23 -6 -47 -9v-766h-144v766q-242 27 -406.5 209.5t-164.5 427.5zM190 995v643h144v-643q0 -127 90 -218 t219 -91t219 91t90 218v643h144v-645q-2 -186 -134.5 -318t-319.5 -132t-319.5 133t-132.5 319zM381 995v643h143v-643q0 -49 35 -83.5t84 -34.5t84 34.5t35 83.5v643h143v-643q0 -109 -76.5 -185.5t-185.5 -76.5t-185.5 77t-76.5 185zM571 995v643h144v-643 q0 -29 -21.5 -50t-51.5 -21t-50.5 21.5t-20.5 49.5z" />
<glyph unicode="z" horiz-adv-x="1406" d="M0 -410l248 1334h-248v143h1180l-142 -762h248v-143h-274l-8 -47h282v-144h-309l-10 -47h319v-143h-344l-10 -47h354v-144h-522l246 1334h-47l-248 -1334h-142l246 1334h-47l-248 -1334h-143l248 1334h-47l-248 -1334h-141l245 1334h-47l-248 -1334h-143zM0 1114v143 h1214l-26 -143h-1188zM0 1305v143h1249l-26 -143h-1223zM0 1495v143h1284l-27 -143h-1257z" />
<glyph unicode="&#x2000;" horiz-adv-x="819" />
<glyph unicode="&#x2001;" horiz-adv-x="1638" />
<glyph unicode="&#x2002;" horiz-adv-x="819" />
<glyph unicode="&#x2003;" horiz-adv-x="1638" />
<glyph unicode="&#x2004;" horiz-adv-x="546" />
<glyph unicode="&#x2005;" horiz-adv-x="409" />
<glyph unicode="&#x2006;" horiz-adv-x="273" />
<glyph unicode="&#x2007;" horiz-adv-x="273" />
<glyph unicode="&#x2008;" horiz-adv-x="204" />
<glyph unicode="&#x2009;" horiz-adv-x="327" />
<glyph unicode="&#x200a;" horiz-adv-x="91" />
<glyph unicode="&#x202f;" horiz-adv-x="327" />
<glyph unicode="&#x205f;" horiz-adv-x="409" />
<glyph unicode="&#xe000;" horiz-adv-x="1638" d="M0 0v1638h1638v-1638h-1638z" />
</font>
</defs>
</svg>
