<?xml version="1.0" standalone="no"?>
<!DOCTYPE svg PUBLIC "-//W3C//DTD SVG 1.1//EN" "http://www.w3.org/Graphics/SVG/1.1/DTD/svg11.dtd" >
<svg xmlns="http://www.w3.org/2000/svg">
<metadata></metadata>
<defs>
<font id="PrestigeEliteSlanted" horiz-adv-x="1228" >
<font-face units-per-em="2048" ascent="1638" descent="-410" />
<missing-glyph horiz-adv-x="500" />
<glyph horiz-adv-x="0" />
<glyph horiz-adv-x="2048" />
<glyph unicode=" " />
<glyph unicode="!" d="M522 86q9 44 48 76.5t83 32.5q46 0 71.5 -32.5t16.5 -76.5q-9 -46 -49 -78.5t-86 -32.5q-44 0 -68.5 32.5t-15.5 78.5zM651 326l111 835q7 39 41.5 65.5t75.5 26.5q40 0 63 -26.5t16 -65.5l-245 -835h-62z" />
<glyph unicode="&#x22;" d="M520 655l21 365q12 139 16 156q5 25 45.5 51t85.5 26t74 -26t24 -51q-10 -46 -49 -156l-135 -365h-82zM905 655l21 365q12 139 16 156q5 25 45.5 51t85.5 26t74 -26t24 -51q-10 -46 -49 -156l-135 -365h-82z" />
<glyph unicode="#" d="M63 489l17 91h274l58 321h-275l17 90h274l119 658h90l-332 -1846h-92l125 686h-275zM582 -197l338 1846h90l-119 -658h276l-18 -90h-275l-57 -321h275l-17 -91h-274l-127 -686h-92z" />
<glyph unicode="$" d="M260 100l33 111q17 88 12 156h82q0 -3 -2 -18t-2.5 -20t-1.5 -19t-1 -20.5t-0.5 -19t1 -20t3 -17.5t4.5 -18.5t7 -15.5q24 -49 99 -73t149 -24q76 0 147 27.5t126 85t71 135.5q11 51 -2 92t-44 68t-74.5 49.5t-93 40.5t-98.5 36.5t-92 42.5t-74 54t-43.5 75t-0.5 101 q27 124 138 217t239 111l47 215h80l-47 -215q197 7 272 -107q-21 -47 -27 -92l-20 -133h-80l10 45q25 121 -9.5 167t-158.5 46q-57 0 -112 -14.5t-106 -42.5t-88 -76.5t-50 -111.5q-10 -46 4.5 -83t46 -61.5t75.5 -46.5t93 -39t98 -39t91.5 -45.5t73 -59.5t42 -81t-1.5 -109 q-28 -133 -149.5 -225t-259.5 -100l-60 -275h-80l60 275q-115 8 -326 71z" />
<glyph unicode="%" d="M301 -23l842 1311l47 -33l-842 -1310zM318 892.5q0 44.5 10 92.5q11 49 30 93.5t48 85.5t72 65t95 24t85.5 -24.5t45.5 -65t12 -85t-11 -93.5q-10 -49 -29 -93.5t-48.5 -85t-73 -65t-95.5 -24.5t-85 24.5t-44.5 65.5t-11.5 85.5zM388 851q3 -37 24 -57t59 -20 q121 0 162 211q46 211 -72 211q-31 0 -57 -15t-42 -35t-29.5 -52t-20 -55t-13.5 -54q-8 -40 -11 -68.5t0 -65.5zM774 151.5q0 44.5 10 92.5q9 39 22 74.5t34.5 71.5t48 62.5t63 43t78.5 16.5q52 0 85 -24.5t45 -65t12 -85t-11 -93.5q-10 -49 -29 -94t-48.5 -85.5t-73 -65 t-95.5 -24.5t-85 24.5t-44.5 66t-11.5 86zM845 110q3 -37 24 -57t59 -20q121 0 162 211q46 211 -72 211q-31 0 -57 -15t-42 -35t-29.5 -52t-20 -55t-13.5 -54q-8 -40 -11 -68.5t0 -65.5z" />
<glyph unicode="&#x26;" d="M281 350q28 132 115.5 234t217.5 147q-85 159 -55 299q21 97 107.5 160t185.5 63q63 0 111 -30.5t77 -83.5l-71 -62q-28 48 -60 75.5t-80 27.5q-64 0 -118 -44.5t-66 -107.5q-27 -122 68 -287l51 -92q113 -198 137 -397q88 134 141 346h175l-17 -74h-104 q-48 -205 -176 -358q22 -98 67 -98q41 0 78 82l49 -33q-47 -123 -143 -123q-49 0 -74.5 27.5t-46.5 80.5q-64 -62 -148.5 -94.5t-169.5 -32.5q-97 0 -162 55t-87 140t-2 180zM361 243q7 -55 28 -98t65.5 -69.5t106.5 -26.5q136 0 270 127l-14 68q-3 14 -10 50t-11 54t-11 46 t-16 50.5t-21 44.5l-101 185q-112 -34 -183 -118.5t-95 -199.5q-15 -58 -8 -113z" />
<glyph unicode="'" d="M713 655l20 365q12 131 17 156t45.5 51t85.5 26t74 -26t24 -51q-10 -46 -49 -156l-135 -365h-82z" />
<glyph unicode="(" d="M641 614q117 547 559 838l37 -63q-108 -64 -195.5 -152t-148 -190.5t-101 -209t-65.5 -223.5q-114 -544 180 -776l-63 -61q-320 289 -203 837z" />
<glyph unicode=")" d="M252 -160q109 64 196.5 152t148.5 190t101.5 208.5t65.5 223.5q25 118 29.5 225t-13 209.5t-67.5 190.5t-131 152l65 61q319 -291 203 -838q-117 -546 -559 -837z" />
<glyph unicode="*" d="M536.5 1006.5q0.5 14.5 8.5 31.5q15 26 42.5 35.5t53.5 -0.5q20 -6 46.5 -25.5t39 -30.5t37.5 -34q20 23 49 35q-16 112 -8 162q5 21 16 37t27 26t35 10q29 0 41 -20.5t4 -52.5q-4 -21 -16.5 -50t-33 -66.5t-24.5 -45.5q24 -14 27 -35q1 1 18.5 12.5t23.5 15.5t22.5 14 t26 15.5t23 13t24.5 12t21 7.5q33 9 56.5 -0.5t27.5 -36.5q1 -17 -4 -30.5t-17 -23t-24 -16.5t-32.5 -11t-35.5 -6.5t-40 -3.5t-38 -1h-37h-11q-2 -16 -25 -39q4 -3 25 -20.5t32.5 -28t26.5 -27t21 -30.5q13 -24 6.5 -51.5t-33.5 -45.5q-27 -16 -50.5 -8.5t-37.5 33.5 q-22 42 -27 156q-16 -8 -41 -4q-52 -111 -94 -156q-24 -26 -50.5 -33.5t-49.5 8.5q-18 20 -13.5 45.5t27.5 51.5q11 11 25.5 22.5t35 25.5t31 20.5t36 21.5t26.5 16q-15 26 -13 43h-17q-16 -1 -34 -0.5t-36.5 1t-35.5 3.5t-32.5 7t-27 11t-18 16.5t-6 24z" />
<glyph unicode="+" d="M70 692v90h499v500h90v-500h500v-90h-500v-499h-90v499h-499z" />
<glyph unicode="," d="M453 -188l18 77q119 33 164 107q-21 -6 -35 -6q-48 0 -74 29.5t-16 78.5q11 53 52 88t95 35q57 0 83.5 -44.5t15.5 -102.5q-20 -92 -110.5 -164t-192.5 -98z" />
<glyph unicode="-" d="M492 578l16 73h491l-16 -73h-491z" />
<glyph unicode="." d="M510 100q10 51 55.5 88t96.5 37t80 -37t18 -88q-10 -51 -55.5 -88t-96.5 -37t-80 37t-18 88z" />
<glyph unicode="/" d="M264 -55l606 1585h95l-607 -1585h-94z" />
<glyph unicode="0" d="M308.5 362.5q-0.5 111.5 29.5 251.5t77.5 251.5t101.5 182.5t118 118.5t124.5 67t121.5 19.5t113 -19.5t96 -67t68 -118.5t24.5 -182.5t-29.5 -251.5t-77.5 -251.5t-102 -182.5t-119 -118.5t-125 -67t-121.5 -19.5t-113 19.5t-95.5 67t-67 118.5t-24 182.5zM394 348 q1 -108 34.5 -174.5t82.5 -95.5t114 -29t127 30t122 93.5t110.5 176.5t82.5 265q26 123 29 220.5t-13.5 161.5t-49.5 106t-75 60t-94 18q-65 0 -126.5 -30t-121 -93.5t-109.5 -177t-83 -265.5q-31 -158 -30 -266z" />
<glyph unicode="1" d="M283 0l16 74h301l221 1048q-133 -27 -284 -30l4 71q246 5 307 64q30 26 51 26q30 0 14 -79l-233 -1100h281l-17 -74h-661z" />
<glyph unicode="2" d="M233 0l19 86l483 426q112 98 198 210.5t109 219.5q12 55 -4.5 108.5t-68 91.5t-129.5 38q-144 0 -234 -115q-13 -54 -40.5 -95.5t-67.5 -41.5q-37 0 -29 45q18 82 82 148t145.5 99t161.5 33q138 0 218 -86.5t52 -222.5q-43 -205 -276 -416l-393 -354l-119 -100h534 l99 135l67 -16l-131 -193h-676z" />
<glyph unicode="3" d="M199 61l47 66q58 -37 140 -57.5t163 -20.5q143 0 252.5 75t138.5 216q29 136 -33 213.5t-200 77.5h-82l16 74h51q262 0 309 217q12 73 2.5 122.5t-42 79.5t-70.5 43t-82 13q-98 0 -178 -62q-11 -45 -50 -94t-81 -49q-35 0 -27 49q13 58 71.5 111.5t139.5 85.5t160 32 q136 0 205 -92t41 -229q-20 -86 -74.5 -155.5t-136.5 -102.5q98 -41 136 -126.5t13 -201.5q-36 -168 -174 -269.5t-309 -101.5q-219 0 -346 86z" />
<glyph unicode="4" d="M252 332l18 86q207 258 354 470t250 433l76 -25q-106 -217 -254.5 -425t-359.5 -465h547l94 442h80l-94 -442h180l-17 -74h-180l-53 -258h180l-16 -74h-469l16 74h209l53 258h-614z" />
<glyph unicode="5" d="M182 29l35 69q113 -49 240 -49q175 0 312 102t173 275q32 150 -38.5 243t-219.5 93q-99 0 -238 -41l148 508h551l-17 -74h-481l-102 -342q117 23 153 23q186 0 278.5 -109t53.5 -295q-43 -204 -210.5 -330.5t-373.5 -126.5q-137 0 -264 54z" />
<glyph unicode="6" d="M311.5 335q1.5 75 20.5 165q26 121 71.5 230t115.5 204.5t157 165.5t200.5 111t241.5 42l-16 -73q-118 2 -228 -44t-193.5 -126t-144.5 -182t-92 -216l2 -4q64 81 161 129.5t190 48.5q108 0 182 -57.5t100 -149.5t4 -198q-35 -164 -166.5 -285t-293.5 -121q-35 0 -69 6 t-71 22.5t-67.5 42t-55.5 67t-37.5 94.5t-11 128zM395.5 271q10.5 -62 37.5 -111.5t81 -80t125 -30.5q122 0 225.5 100t132.5 232q27 132 -34 232t-183 100q-132 0 -241 -91t-138 -225q-16 -64 -5.5 -126z" />
<glyph unicode="7" d="M358 -25l740 1180h-619l17 74h729l-779 -1254h-88z" />
<glyph unicode="8" d="M283 324q27 126 129 212.5t235 110.5q-99 44 -152 129.5t-30 196.5q19 87 84.5 152.5t152 96.5t179.5 31t166.5 -31t111.5 -96.5t19 -152.5q-23 -111 -113 -196.5t-209 -129.5q124 -24 190 -110.5t39 -212.5q-32 -147 -173 -248t-304 -101q-79 0 -146.5 27t-112 72.5 t-63.5 111t-3 138.5zM369 332q-25 -120 55 -201.5t201 -81.5q78 0 157 35.5t139.5 101.5t77.5 146q14 63 -2.5 115.5t-55 85.5t-90.5 51t-110 18q-78 0 -154.5 -30.5t-137.5 -93.5t-80 -146zM543.5 911.5q-0.5 -27.5 5 -50t18.5 -43t30 -37.5t43 -35t53 -33.5t65 -34.5 q82 34 133.5 60t95.5 60.5t68.5 75.5t36.5 97q15 71 -17 120t-87 69t-124 20q-109 0 -200 -52.5t-113 -156.5q-7 -32 -7.5 -59.5z" />
<glyph unicode="9" d="M309 -25l17 74h96q110 0 215.5 50t185.5 132t139 183.5t87 208.5l-5 4q-64 -79 -161.5 -130t-190.5 -51q-160 0 -240 114.5t-46 277.5q37 171 167.5 293t298.5 122q42 0 82 -10t81.5 -34t70.5 -63t50 -97t20.5 -136t-19.5 -180q-25 -115 -70 -222.5t-114 -205.5 t-154 -171t-196 -116t-234 -43h-80zM493.5 691q17.5 -74 74 -122.5t141.5 -48.5q70 0 136 29.5t113.5 75.5t80.5 99.5t44 104.5q9 51 8.5 101t-18.5 95t-45.5 79.5t-71 55t-96.5 20.5q-129 0 -234 -100t-132 -230q-18 -85 -0.5 -159z" />
<glyph unicode=":" d="M510 100q10 51 55.5 88t96.5 37t80 -37t18 -88q-10 -51 -55.5 -88t-96.5 -37t-80 37t-18 88zM645 735q10 51 55.5 88t96.5 37t80 -37t18 -88q-10 -51 -55.5 -88t-96.5 -37t-80 37t-18 88z" />
<glyph unicode=";" d="M473 -188l19 77q118 33 163 107q-21 -6 -34 -6q-48 0 -74.5 30t-16.5 78q11 53 52.5 88t95.5 35q57 0 83 -44.5t15 -102.5q-20 -92 -110.5 -164t-192.5 -98zM666 735q10 51 55 88t96 37t80 -37t18 -88q-10 -51 -55 -88t-96 -37t-80 37t-18 88z" />
<glyph unicode="&#x3c;" d="M201 737l776 738l51 -66l-696 -672l696 -671l-51 -66z" />
<glyph unicode="=" d="M70 555v90h1089v-90h-1089zM70 829v91h1089v-91h-1089z" />
<glyph unicode="&#x3e;" d="M201 66l696 671l-696 672l51 66l776 -738l-776 -737z" />
<glyph unicode="?" d="M461 86q9 44 48 76.5t83 32.5q46 0 71.5 -32.5t16.5 -76.5q-9 -46 -49 -78.5t-86 -32.5q-44 0 -68.5 32.5t-15.5 78.5zM463 956q27 122 136 209.5t247 87.5q118 0 186.5 -79.5t42.5 -196.5q-10 -50 -30.5 -93.5t-55 -86t-62 -70.5t-77.5 -76q-95 -87 -132.5 -149.5 t-58.5 -175.5h-75l8 39q15 71 48.5 135t72.5 107.5t83.5 89t82 82t67.5 84.5t41 98q19 91 -25 155t-133 64q-88 0 -163.5 -51.5t-104.5 -137.5q9 -44 -9 -87.5t-54 -43.5q-55 0 -35 96z" />
<glyph unicode="@" d="M197 508q21 102 65 205t111.5 200.5t149 173t186 121t215.5 45.5q202 0 311 -143t61 -371q-14 -65 -44 -134.5t-74 -136.5t-108.5 -110t-135.5 -43q-54 0 -91.5 29t-43.5 80q-98 -109 -209 -109q-68 0 -100.5 44.5t-18.5 113.5q17 82 66.5 169t130.5 149q64 49 137 65 t170 16h47l-111 -286q-78 -197 37 -197q52 0 98.5 36.5t78 93t52 111.5t31.5 105q41 195 -44.5 320t-264.5 125q-54 0 -120.5 -23t-142 -76.5t-143 -129t-124.5 -191.5t-86 -254q-46 -210 39 -333.5t274 -123.5q195 0 440 137l15 -75q-256 -136 -484 -136q-219 0 -320.5 146 t-49.5 387zM559 483q-8 -38 6 -66t49 -28q45 0 94.5 40.5t82.5 90.5q16 22 32 52t24 49.5t22.5 58.5t19.5 51l22 64q-129 -10 -174 -39q-77 -48 -120 -123.5t-58 -149.5z" />
<glyph unicode="A" d="M51 0l17 74h98l729 1284l201 -1284h98l-16 -74h-375l16 74h191l-49 319h-535l-178 -319h190l-16 -74h-371zM467 467h483l-102 680z" />
<glyph unicode="B" d="M129 0v74l217 24l219 1032l-211 25l17 74q24 -3 63.5 -9.5t73.5 -11t65 -4.5q30 0 170 12.5t187 12.5q59 0 108.5 -17.5t83.5 -51t48 -82.5q7 -24 6 -51q0 -28 -7 -60q-20 -93 -93 -171t-169 -114q137 -28 201 -118q43 -60 43 -145q0 -41 -10 -89q-32 -150 -144 -240 t-260 -90q-43 0 -163 12.5t-154 12.5q-51 0 -101 -4t-113 -12t-77 -9zM426 98h78l205 -24q22 -2 43 -2q102 0 180 56q94 68 125 206q8 29 8 58q-1 7 -1 14q-2 36 -11 68.5t-33.5 60.5t-60 48.5t-90.5 32t-124 11.5h-206zM555 700h104q99 0 177.5 22t127.5 60t77.5 82 t39.5 94q6 28 6 52q1 59 -35 97q-50 54 -147 54q-48 0 -140.5 -14t-119.5 -17z" />
<glyph unicode="C" d="M286 374q-2 24 -2 50q0 91 25 203q24 114 66 210t94 163t110.5 117t121.5 79t121.5 43t115.5 14q159 0 283 -84l41 78l67 -24q-44 -74 -74 -207l-22 -144l-78 -12q10 56 10 102q1 85 -33 137q-52 81 -206 81q-88 0 -167 -34t-137 -89.5t-105 -130t-77 -151.5t-47 -157 q-17 -78 -19 -156q0 -10 -1 -21q0 -67 14 -132q16 -75 50 -132.5t97.5 -92.5t149.5 -35q155 0 255.5 92.5t133.5 251.5h80l-51 -239q-215 -179 -440 -179q-68 0 -129.5 21.5t-117 69.5t-88 124t-41.5 184z" />
<glyph unicode="D" d="M115 0l4 74l174 24l219 1032l-160 25l25 74q15 -2 47.5 -9.5t62 -11.5t60.5 -4q37 0 128.5 12.5t145.5 12.5q105 0 183.5 -32t126 -89.5t70.5 -137.5q22 -75 22 -163q-1 -5 -1 -11q-2 -94 -24 -204q-30 -142 -84.5 -250t-117 -171.5t-139.5 -103.5t-144.5 -53.5 t-139.5 -13.5q-45 0 -132 12.5t-132 12.5q-37 0 -110.5 -12t-83.5 -13zM373 98l213 -24q25 -3 50 -3q146 -1 270 107q144 126 200 381q26 133 26 234q0 31 -2 60q-10 120 -62 191q-54 72 -128 98q-50 18 -108 17q-29 0 -60 -4l-180 -25z" />
<glyph unicode="E" d="M96 0l17 74h211l229 1081h-211l16 74h947l-70 -324h-80l6 31q9 44 13.5 71t6 53.5t-5 40.5t-17 26t-32 17.5t-48.5 8t-68 2.5h-377l-94 -446h335l37 178h80l-96 -453h-80l43 201h-336l-119 -561h369q46 0 79 2t60.5 9t46 13.5t34.5 24t25 31.5t19 44t15.5 54.5t15.5 69.5 l10 47h80l-78 -369h-983z" />
<glyph unicode="F" d="M127 0l16 74h205l230 1081h-205l16 74h940l-69 -324h-80l6 31q11 50 15 80t2.5 57t-11 41t-30.5 24.5t-51 13.5t-77 3h-377l-102 -479h336l39 178h80l-97 -453h-79l40 201h-335l-111 -528h369l-17 -74h-653z" />
<glyph unicode="G" d="M246 402v8q0 91 22 204q28 136 81.5 246t118.5 182t142 120.5t152 69.5t149 21q159 0 285 -92l49 88l60 -18q-49 -97 -70 -201l-21 -162l-84 -12q7 67 7 113q0 36 -4 59q-14 78 -79.5 115t-158.5 37q-53 0 -108.5 -14t-122 -52t-123 -96t-106.5 -157t-77 -224 q-23 -107 -23 -193q0 -16 1 -32q5 -98 30 -167t69.5 -112.5t93.5 -63.5t102 -20q84 0 180 33t154 92q13 13 24 30.5t17.5 30.5t13.5 39t9 34.5t7.5 38.5t5.5 32l13 55h-279l17 74h485l-16 -74h-127l-60 -280q-105 -83 -223.5 -131t-233.5 -48q-50 0 -99.5 14.5t-99 46 t-86.5 81.5t-61.5 121t-25.5 164z" />
<glyph unicode="H" d="M80 0l16 74h174l230 1081h-174l16 74h428l-16 -74h-174l-105 -487h561l105 487h-174l16 74h428l-16 -74h-174l-230 -1081h174l-16 -74h-428l16 74h174l111 520h-561l-111 -520h174l-16 -74h-428z" />
<glyph unicode="I" d="M240 0l16 74h336l229 1081h-336l17 74h749l-16 -74h-334l-229 -1081h334l-17 -74h-749z" />
<glyph unicode="J" d="M178 82l64 301h80l-11 -43q-19 -93 -19 -136v-11q3 -32 17 -54q31 -46 106.5 -68t153.5 -22q142 0 205.5 63t95.5 212l177 831h-263l17 74h553l-17 -74h-211l-188 -881q-32 -158 -122.5 -228.5t-262.5 -70.5q-217 0 -375 107z" />
<glyph unicode="K" d="M82 0l16 74h170l230 1081h-170l16 74h418l-17 -74h-167l-111 -516q128 7 332 174q171 137 338 342h-170l16 74h418l-17 -74h-159q-132 -163 -258 -287t-269 -213l340 -581h174l-16 -74h-430l16 74h150l-316 540q-80 -41 -163 -47l-105 -493h168l-16 -74h-418z" />
<glyph unicode="L" d="M104 0l17 74h227l230 1081h-228l17 74h542l-16 -74h-236l-229 -1081h414q96 0 152 47t71 119l35 161h80l-86 -401h-990z" />
<glyph unicode="M" d="M53 0l17 74h147l229 1081h-147l16 74h258l160 -670l447 670h258l-17 -74h-147l-230 -1081h148l-16 -74h-400l17 74h172l219 1038h-4l-486 -733l-174 733h-4l-219 -1038h172l-16 -74h-400z" />
<glyph unicode="N" d="M66 0l16 74h156l229 1081h-156l17 74h260l387 -1098h4l217 1024h-199l17 74h409l-16 -74h-131l-246 -1155h-94l-395 1112h-4l-220 -1038h193l-16 -74h-428z" />
<glyph unicode="O" d="M243 400.5q0 97.5 25 213.5q29 138 83 249.5t117 183t136.5 119t142 67.5t134.5 20t125.5 -20.5t114.5 -66.5t86 -120t39 -182q2 -23 2 -46q0 -91 -25 -204q-29 -138 -83 -249.5t-117.5 -182.5t-137.5 -119t-142.5 -68t-134.5 -20q-54 0 -105 14.5t-99 44.5t-83 81.5 t-56.5 119.5t-21.5 165.5zM330 394q4 -94 27 -159.5t66.5 -107t93.5 -60t108 -18.5q74 0 147 30.5t144 94t130 177t91 263.5q24 108 24 193q-1 15 -1 27q-4 94 -27.5 160t-67 107.5t-93.5 60t-108 18.5t-116 -18.5t-118.5 -61t-111.5 -106t-95 -161.5t-69 -219 q-24 -109 -25 -195q1 -13 1 -25z" />
<glyph unicode="P" d="M162 0l16 74h174l228 1069l-172 12l16 76l190 -8h29q55 0 145 5q114 7 162 7q169 0 250 -83q57 -58 57 -155q0 -41 -10 -88q-75 -360 -573 -360h-142l-100 -475h313l-16 -74h-567zM549 623h156q196 0 311.5 70t146.5 222q8 37 8 69q0 74 -45 120q-57 57 -163 58 q-13 0 -27 -1l-277 -16z" />
<glyph unicode="Q" d="M243 400.5q0 97.5 25 213.5q29 138 83 249.5t117 183t136.5 119t142 67.5t134.5 20t125.5 -20.5t114.5 -66.5t86 -120t39 -182q2 -22 2 -46q0 -91 -25 -204q-35 -161 -110 -303.5t-195 -230.5l88 -191h141l-17 -73h-192l-98 217q-114 -58 -232 -58q-54 0 -105 14.5 t-99 44.5t-83 81.5t-56.5 119.5t-21.5 165.5zM330 394q4 -94 27 -159.5t66.5 -107t93.5 -60t108 -18.5q99 0 188 47l-117 262l72 50l119 -261q96 78 158 206t92 261q24 108 24 193q0 13 -1 27q-4 94 -27.5 160t-67 107.5t-93.5 60t-108 18.5t-116 -18.5t-118.5 -61 t-111.5 -106t-95 -161.5t-69 -219q-24 -109 -24 -195v-25z" />
<glyph unicode="R" d="M102 0l17 74h174l227 1069l-172 12l17 76l190 -8h29q54 0 144 5q114 7 163 7q63 0 117.5 -18.5t96.5 -55t59 -98.5q9 -32 9 -68q0 -34 -8 -73q-28 -132 -123.5 -216.5t-234.5 -113.5l237 -518h142l-17 -74h-192l-254 578h-244l-106 -504h198l-16 -74h-453zM496 651h110 q55 0 99 3.5t97 12.5t94 28t79 48t64.5 74.5t39.5 104.5q6 28 6 54q0 45 -19 80q-30 56 -87.5 80.5t-134.5 24.5q-45 0 -141.5 -7t-102.5 -7z" />
<glyph unicode="S" d="M217 -14l62 207q18 64 18 169l78 11l-6 -76q-2 -21 -2 -39q1 -36 7 -64q10 -42 37.5 -76.5t84 -51.5t141.5 -17q53 0 106.5 14t104 42.5t88 78t51.5 113.5q7 34 7 63q0 22 -4 42q-9 46 -35 74.5t-64 52t-83.5 38t-93 32t-92.5 33t-82.5 42t-63 59t-33.5 83.5q-3 19 -3 39 q0 36 9 77q21 102 95 177t167.5 109.5t193.5 34.5q147 0 244 -69l33 94l73 -14l-57 -195q-7 -25 -10.5 -53t-5.5 -64t-4 -53l-80 -10q1 10 5 35.5t6 40t3.5 35.5t0 38.5t-6.5 32.5q-19 57 -75 83t-128 26q-79 0 -152.5 -22.5t-135 -78.5t-78.5 -137q-6 -28 -6 -52 q-1 -28 7 -52q14 -45 47 -72t78.5 -50t98 -38.5t104 -37t96 -45t76 -63t42.5 -91.5q4 -21 5 -47q0 -37 -10 -83q-32 -152 -163.5 -244t-301.5 -92q-188 0 -291 97l-30 -97z" />
<glyph unicode="T" d="M295 825l86 404h989l-86 -404h-80l29 142q15 63 15 102q0 35 -12 51q-25 34 -142 35h-195l-229 -1081h276l-16 -74h-633l16 74h277l229 1081h-194q-62 0 -97 -6.5t-60 -29t-38 -56t-27 -96.5l-28 -142h-80z" />
<glyph unicode="U" d="M322 352l170 803h-144l17 74h376l-16 -74h-154l-165 -778q-16 -74 -16 -131q0 -78 30 -122q52 -76 204.5 -75.5t236.5 76t122 252.5l166 778h-154l17 74h377l-17 -74h-143l-170 -803q-43 -200 -153 -288.5t-298 -88.5q-188 1 -258 89q-44 55 -44 152q0 60 16 136z" />
<glyph unicode="V" d="M315 1155l17 74h387l-17 -74h-178l103 -1100l569 1100h-180l16 74h389l-16 -74h-129l-608 -1180h-119l-105 1180h-129z" />
<glyph unicode="W" d="M303 1155l16 74h328l-16 -74h-164l-78 -1044h4l391 688l97 -688h4l368 1044h-163l16 74h328l-17 -74h-86l-420 -1180h-86l-88 605l-346 -605h-86l84 1180h-86z" />
<glyph unicode="X" d="M74 0l16 74h123l489 561l-219 520h-114l16 74h369l-17 -74h-168l193 -461l389 461h-168l16 74h369l-16 -74h-115l-440 -520l252 -561h122l-16 -74h-418l17 74h202l-221 495l-430 -495h203l-16 -74h-418z" />
<glyph unicode="Y" d="M301 0l16 74h275l96 461l-244 620h-120l16 74h393l-16 -74h-187l215 -547l449 547h-190l16 74h393l-16 -74h-119l-510 -620l-96 -461h274l-16 -74h-629z" />
<glyph unicode="Z" d="M170 0l16 74l957 1081h-377q-61 0 -101 -3.5t-72 -17.5t-49.5 -29t-33.5 -51.5t-24.5 -71t-22.5 -99.5l-6 -23h-80l80 369h790l-16 -74l-955 -1081h474q46 0 79 2t61 9t46.5 14.5t35 26t26 34.5t20.5 48.5t17.5 60t17.5 77.5l4 23h80l-78 -369h-889z" />
<glyph unicode="[" d="M553 -223l356 1675h385l-16 -74h-305l-326 -1528h305l-14 -73h-385z" />
<glyph unicode="\" d="M264 1530h94l607 -1585h-95z" />
<glyph unicode="]" d="M197 -223l14 73h305l326 1528h-305l16 74h385l-356 -1675h-385z" />
<glyph unicode="^" d="M225 731l336 662h107l329 -662h-102l-281 563l-286 -563h-103z" />
<glyph unicode="_" d="M0 -147h1229v-74h-1229v74z" />
<glyph unicode="`" d="M582 1229l94 92l295 -291l-60 -61z" />
<glyph unicode="a" d="M205 197q21 96 98 157.5t234.5 95.5t404.5 37l25 117q12 61 12 101t-35.5 60.5t-116.5 20.5q-172 0 -329 -94l-25 -114h-80l37 170q212 112 412 112q150 0 194 -52q25 -30 26 -90q0 -43 -13 -102l-115 -542h174l-16 -74h-254l16 78q-250 -103 -428 -103q-114 -1 -179 55 q-48 41 -48 113q0 25 6 54zM291 197q-4 -21 -4 -38q-1 -49 33 -75q46 -34 129 -35q161 0 423 113l54 252q-178 -6 -299.5 -23t-190.5 -46t-101.5 -64t-43.5 -84z" />
<glyph unicode="b" d="M221 -14q47 51 60.5 75.5t25.5 81.5l228 1069q-142 -29 -201 -32l4 73q159 5 223 64q26 26 49 26q20 0 20 -34q0 -18 -5 -45l-105 -490q149 86 297 86q120 0 199.5 -57.5t105.5 -155.5q13 -49 13 -103q0 -55 -13 -116q-41 -194 -183.5 -323.5t-334.5 -129.5 q-69 0 -135.5 25t-106.5 70q-16 -50 -83 -117zM389 154q32 -52 92.5 -78.5t132.5 -26.5q159 0 272 103t148 264q12 52 12 100q0 21 -2 42q-8 67 -35 117.5t-83.5 80.5t-134.5 30q-71 0 -148 -28t-141 -76z" />
<glyph unicode="c" d="M281 410q41 196 195 323t351 127q58 0 110 -11.5t97 -43t60 -78.5l-39 -186h-74l8 37q8 36 8 65q-1 59 -33 93q-48 50 -159 50q-159 0 -281.5 -103t-154.5 -261q-11 -50 -10 -94q-1 -102 55 -175q80 -104 245 -104q177 0 363 84l12 -67q-88 -42 -195 -66.5t-200 -24.5 q-195 0 -297 120q-73 85 -73 208q0 50 12 107z" />
<glyph unicode="d" d="M242 412q25 119 96.5 221t181 164.5t230.5 62.5q123 0 229 -59l88 411q-142 -29 -201 -32l4 73q160 5 224 64q26 26 49 26q20 0 20 -34q0 -18 -6 -45l-252 -1190h164l-16 -74h-244l12 55q-59 -36 -135 -58t-139 -22q-114 0 -193 62q-80 61 -108 161q-15 53 -16 111 q0 50 12 103zM328 240q20 -83 83 -137t160 -54q136 0 267 88l123 576q-92 73 -209 73q-147 0 -268 -102.5t-156 -265.5q-10 -48 -10 -92t10 -86z" />
<glyph unicode="e" d="M276 218q-10 39 -10 83q0 45 10 96q42 194 196.5 328.5t346.5 134.5q185 0 271 -110q58 -75 58 -185q0 -51 -13 -110l-21 -74h-754q-7 -39 -7 -73q-1 -111 71 -175q94 -84 268 -84q91 0 181 22.5t210 67.5l13 -65q-228 -99 -449 -99q-95 0 -172 28.5t-128 82.5t-71 132z M381 455h670q13 50 13 93q0 82 -48 144q-72 94 -211 94q-137 0 -259 -94.5t-165 -236.5z" />
<glyph unicode="f" d="M240 0l16 74h246l145 688h-309l16 74h310l10 49q30 138 46 184q57 159 189 196q46 13 101 13q229 0 381 -113l-70 -67q-145 106 -320 106q-53 0 -93 -19t-62 -39t-41.5 -69t-25 -71t-17.5 -84q-2 -8 -3 -12.5t-2.5 -11.5t-2.5 -13l-11 -49h414l-16 -74h-414l-145 -688 h368l-16 -74h-694z" />
<glyph unicode="g" d="M172 -217q16 72 76.5 133t138.5 98q-27 6 -42 25t-9 47q16 81 172 178q-81 32 -116 106q-22 48 -22 104q0 32 7 67q30 137 143 228t262 91q68 0 129 -24h244l-16 -74h-135q41 -72 41 -152q0 -34 -7 -69q-30 -144 -135.5 -226t-249.5 -82q-39 0 -73 9q-40 -21 -93.5 -62.5 t-60.5 -68.5q-6 -33 133 -33h281q140 0 210 -51q52 -38 52 -108q0 -24 -6 -52q-15 -72 -59.5 -128.5t-101.5 -89.5t-129.5 -54.5t-136.5 -29t-130 -7.5q-26 0 -48.5 0.5t-52 3t-54 6t-53 10t-49 15.5t-43.5 21.5t-35.5 28.5t-24.5 37q-12 20 -12 44t5 59zM260 -211 q-3 -15 -3 -28q0 -18 5 -34q10 -27 34.5 -43.5t53 -27.5t66.5 -16t66.5 -7t60.5 -2q61 0 126.5 9.5t140.5 31.5t129.5 69t68.5 112q5 24 5 44q0 18 -5 33q-9 30 -38 43.5t-59 18t-77 4.5h-361q-41 -22 -69 -39t-61 -43t-54 -57.5t-29 -67.5zM465 551q-7 -34 -7 -63 q0 -71 41 -116q58 -65 175 -65q111 0 183 64.5t95 169.5q7 34 7 64q0 65 -34 112q-50 69 -155 69q-104 0 -193 -66t-112 -169z" />
<glyph unicode="h" d="M129 0l16 74h144l241 1138q-142 -29 -200 -32l4 73q159 5 223 64q26 26 49 26q20 0 20 -34q0 -18 -5 -45l-111 -523q248 119 385 119q139 0 187 -76q26 -41 27 -117q0 -63 -19 -149l-95 -444h144l-17 -74h-383l17 74h159l89 418q7 30 10.5 47.5t8 46t5 45.5t-1 41 t-7.5 38.5t-17 30.5t-27.5 24.5t-40.5 14.5t-55 6q-154 0 -387 -131l-123 -581h159l-16 -74h-383z" />
<glyph unicode="i" d="M182 0l17 74h415l146 692q-46 -9 -168.5 -19.5t-233.5 -13.5l4 74q364 5 424 63q31 27 52 27q20 0 20 -33q0 -18 -6 -47l-158 -743h369l-16 -74h-865zM750 1143q9 46 48 78t85 32q45 0 71 -32q19 -24 19 -55q0 -11 -2 -23q-11 -46 -50 -78.5t-85 -32.5t-71 32 q-18 23 -18 54q0 12 3 25z" />
<glyph unicode="j" d="M78 -330l69 68q146 -107 320 -107q53 0 93.5 19t63 39.5t42 70.5t25 73t18.5 86q3 12 4 18l176 829q-103 -35 -211 -35q-26 0 -51 2l-138 8l3 72l157 -8q15 -1 30 -1q55 0 116 12q78 14 120 54q29 25 46 25q13 0 20 -7t7 -22t-1.5 -25t-6 -28.5t-5.5 -21.5l-172 -807 q-2 -10 -6 -29q-16 -77 -26 -116.5t-35.5 -102.5t-57.5 -95t-88.5 -57.5t-130.5 -25.5q-228 0 -381 112zM903 1143q9 46 48 78t85 32t72 -32q18 -24 18 -55q0 -11 -2 -23q-11 -46 -50 -78.5t-85 -32.5t-71 32q-18 24 -18 54q0 12 3 25z" />
<glyph unicode="k" d="M106 0l17 74h201l241 1138q-142 -29 -200 -32l4 73q159 5 223 64q26 26 49 26q20 0 20 -34q0 -18 -6 -45l-192 -908l518 406h-119l17 74h358l-16 -74h-138l-311 -252l254 -436h150l-17 -74h-360l16 74h117l-225 387l-263 -193l-41 -194h158l-16 -74h-439z" />
<glyph unicode="l" d="M205 0l16 74h391l242 1138q-45 -9 -153.5 -19t-200.5 -13l4 73q314 5 377 64q26 26 49 26q20 0 20 -34q0 -18 -6 -45l-252 -1190h348l-16 -74h-819z" />
<glyph unicode="m" d="M80 0l16 74h125l146 692q-19 -4 -51.5 -12.5t-58 -13t-52.5 -5.5l4 72q123 4 184 63q1 1 6.5 6t6.5 6t6 4.5t7.5 4.5t7 3t8.5 2.5t9 0.5q21 0 21 -34q0 -18 -6 -46l-10 -47q50 35 117.5 62.5t115.5 27.5q110 0 129 -102q142 102 270 102q40 0 67.5 -10.5t41 -33 t19.5 -44.5q4 -15 4 -36q0 -10 -1 -22q-3 -36 -7 -60.5t-13 -63.5l-109 -516h125l-16 -74h-305l16 74h101l108 516q1 5 5.5 26.5t6 30t5 28.5t2.5 29.5t-2 25t-7 23.5t-14 17t-21.5 12.5t-31.5 3.5q-97 0 -234 -102l-129 -610h101l-17 -74h-280l16 74h100l109 516 q15 73 15 113q0 15 -2 26q-13 56 -75 57q-46 0 -110.5 -31.5t-118.5 -70.5l-129 -610h100l-16 -74h-305z" />
<glyph unicode="n" d="M129 0l16 74h144l145 692q-19 -4 -51.5 -12.5t-58 -13t-52.5 -5.5l4 72q124 4 185 63q1 1 6.5 6t6.5 6t6 4.5t7.5 4.5t7 3t8.5 2.5t9 0.5q20 0 20 -33q0 -18 -6 -47l-16 -76q248 119 385 119q139 0 187 -76q26 -41 27 -117q0 -63 -19 -149l-95 -444h144l-17 -74h-383 l17 74h159l89 418q7 30 10.5 47.5t8 46t5 45.5t-1 41t-7.5 38.5t-17 30.5t-27.5 24.5t-40.5 14.5t-55 6q-154 0 -387 -131l-123 -581h159l-16 -74h-383z" />
<glyph unicode="o" d="M272 418q40 186 189.5 314t335.5 128q123 0 209.5 -59t119.5 -160q18 -56 18 -120q0 -50 -11 -103q-39 -186 -189 -314.5t-336 -128.5q-185 0 -280 128q-67 91 -67 211q0 50 11 104zM358 418q-10 -46 -9 -88q0 -97 51 -173q74 -108 225 -108q152 0 271 108t151 261 q10 48 10 91q0 95 -50 169q-73 108 -225 108t-271.5 -107.5t-152.5 -260.5z" />
<glyph unicode="p" d="M94 -418l15 74h127l235 1110q-19 -4 -51.5 -12.5t-58 -13t-52.5 -5.5l4 72q124 4 185 63q1 1 6.5 6t6.5 6t6 4.5t7.5 4.5t7 3t8.5 2.5t9 0.5q20 0 20 -33q0 -19 -6 -47l-16 -78q164 121 297 121q117 0 193 -63.5t99 -162.5q11 -48 11 -100q0 -55 -12 -114 q-40 -187 -189.5 -316t-337.5 -129q-116 0 -213 54l-80 -373h201l-14 -74h-408zM412 111q92 -62 211 -62q151 0 272 109.5t154 263.5q9 53 10 104v7q0 48 -15 92q-16 47 -42.5 83t-71 57t-101.5 21q-78 0 -164 -45t-143 -112z" />
<glyph unicode="q" d="M291 408q21 97 64 175.5t95.5 129t114.5 84.5t119 48.5t111 14.5q124 0 231 -76q30 68 66 113l63 -29q-33 -46 -48.5 -79.5t-27.5 -88.5l-223 -1044h184l-14 -74h-494l15 74h229l72 336q-18 -2 -59.5 -7t-73.5 -7.5t-60 -2.5q-221 0 -315 110q-63 75 -63 197q0 58 14 126 zM375 397q-11 -54 -11 -100q0 -101 54 -161q79 -87 254 -87q106 0 192 19l137 643q-39 35 -98.5 55t-118.5 20q-155 0 -264 -111t-145 -278z" />
<glyph unicode="r" d="M225 0l17 74h182l145 692q-19 -4 -51 -12.5t-57.5 -13t-52.5 -5.5l4 72q123 4 184 63q1 1 6.5 6t6.5 6t6 4.5t7.5 4.5t7 3t8.5 2.5t9 0.5q21 0 21 -34q0 -18 -6 -46l-35 -164q11 7 57 37.5t65 42t61.5 37t68.5 37t62.5 26.5t68 21t61.5 6q63 0 102 -38t50 -101l-95 -33 q-3 41 -24 69.5t-60 28.5q-131 0 -440 -239l-100 -473h379l-17 -74h-641z" />
<glyph unicode="s" d="M221 -8q39 79 53 155q13 63 13 108q0 18 -2 32h77q-1 -12 -1 -23q0 -110 54 -160q59 -54 212 -55q49 0 97.5 7t101 23.5t90 50.5t47.5 81q3 15 3 28q0 34 -21 58q-29 33 -84 47t-123 22.5t-135 20t-121 31.5q-54 21 -80 66q-17 29 -16 67q0 22 5 47q18 84 82.5 145 t145.5 89t167 28q140 0 283 -57l43 96l66 -12q-46 -99 -66 -191l-14 -114h-76v18q-1 71 -20.5 109.5t-70.5 57.5t-145 19q-46 0 -92 -9t-92 -28.5t-79.5 -56.5t-43.5 -86q-3 -14 -3 -27q0 -33 21 -57q29 -32 84 -46.5t122.5 -23t135 -21t120.5 -33.5t79 -67q16 -29 16 -68 q0 -22 -5 -48q-15 -69 -62 -119t-112.5 -75t-128.5 -35.5t-128 -10.5q-85 0 -165 20t-127 64l-45 -86z" />
<glyph unicode="t" d="M293 762l16 74h301l49 235h80l-49 -235h488l-17 -74h-487l-94 -449q-23 -107 -24 -153q0 -5 1 -10q15 -98 123 -101q39 0 91.5 7.5t87 14.5t102 22.5t86.5 19.5l8 -70q-270 -68 -404 -68q-123 -1 -157 71q-15 33 -16 91q0 70 22 176l94 449h-301z" />
<glyph unicode="u" d="M264 735l4 72q124 4 185 63q1 1 6.5 6t6.5 6t6 4.5t7.5 4.5t7 3t8.5 2.5t9 0.5q20 0 20 -33q0 -18 -6 -47l-100 -467q-18 -85 -18 -144q0 -58 18 -91q36 -66 147 -66q136 0 353 98l131 619q-19 -4 -51.5 -12.5t-58 -13t-52.5 -5.5l4 72q123 4 184 63q1 1 6.5 6t6.5 6 t6 4.5t7.5 4.5t7 3t8.5 2.5t9 0.5q21 0 21 -34q0 -18 -6 -46l-158 -743h166l-16 -74h-246l14 70q-206 -95 -362 -95q-222 0 -222 215q0 56 15 127l94 449q-19 -4 -51.5 -12.5t-58 -13t-52.5 -5.5z" />
<glyph unicode="v" d="M266 762l17 74h344l-17 -74h-127l142 -713l444 713h-129l16 74h347l-17 -74h-131l-502 -787h-90l-166 787h-131z" />
<glyph unicode="w" d="M184 762l17 74h360l-16 -74h-148l43 -705l291 547h60l61 -547l338 705h-156l17 74h333l-16 -74h-104l-373 -787h-109l-55 474l-252 -474h-113l-43 787h-135z" />
<glyph unicode="x" d="M80 0l16 74h117l420 368l-246 320h-123l17 74h391l-17 -74h-157l200 -262l301 262h-159l16 74h397l-16 -74h-137l-361 -318l285 -370h139l-16 -74h-422l16 74h177l-244 315l-359 -315h189l-17 -74h-407z" />
<glyph unicode="y" d="M16 -379l45 70q31 -27 76 -43.5t90 -16.5q25 0 51 10t46 22t44.5 37t38.5 40.5t37 49t30 45t28 44.5l102 160l-215 723h-121l17 74h385l-17 -74h-178l189 -633l413 633h-178l16 74h385l-16 -74h-127l-582 -899q-84 -129 -119 -171q-117 -130 -251 -134q-51 0 -102.5 17 t-86.5 46z" />
<glyph unicode="z" d="M207 0l18 84l813 678h-397q-38 0 -60 -1t-41 -6.5t-28.5 -11.5t-20 -23t-17 -32.5t-17.5 -47.5q-8 -23 -13 -36l-14 -39h-76l92 271h719l-16 -72l-823 -690h479h53.5t37 7t28 13t21 29.5t22.5 44.5t26 70l13 36h73l-92 -274h-780z" />
<glyph unicode="{" d="M555 623q92 23 127 66.5t57 139.5l58 271q29 137 91.5 187.5t203.5 55.5l-9 -40q-100 -14 -142.5 -61.5t-63.5 -139.5l-56 -260q-23 -99 -60.5 -147t-131.5 -70l-2 -4q60 -16 86.5 -47t25.5 -75.5t-12 -105.5l-55 -260q-19 -91 4 -139t117 -62l-9 -41q-145 10 -181.5 67 t-4.5 202l53 254q12 59 12 99t-25 66.5t-83 43.5z" />
<glyph unicode="|" d="M569 -590v2212h90v-2212h-90z" />
<glyph unicode="}" d="M399 -109l9 41q100 14 143.5 62t62.5 139l56 260q23 99 60.5 147t131.5 70l2 4q-60 16 -86.5 47t-25.5 75.5t12 105.5l55 260q21 90 -2.5 138.5t-118.5 62.5l9 40q100 -7 146 -34t55 -84t-13 -150l-55 -254q-12 -59 -12 -99t25.5 -66t84.5 -42v-4q-94 -22 -129 -65 t-57 -139l-58 -271q-29 -137 -91.5 -188t-203.5 -56z" />
<glyph unicode="~" d="M61 618q27 48 53.5 86t64 78t83.5 62t96 22q57 0 133 -24t137 -52.5t126.5 -52.5t103.5 -24q74 0 141 57.5t103 132.5l65 -47q-51 -95 -132.5 -164t-174.5 -69q-51 0 -151.5 38.5t-198 76.5t-141.5 38q-35 0 -66 -12t-52.5 -28t-45.5 -45.5t-37 -49.5t-34 -55l-9 -15z " />
<glyph unicode="&#xa0;" />
<glyph unicode="&#xa1;" d="M444 -326l246 836h62l-111 -836q-7 -39 -41.5 -65.5t-75.5 -26.5q-40 0 -63.5 26.5t-16.5 65.5zM664 752q9 44 48 76t83 32q46 0 71.5 -32t16.5 -76q-9 -46 -48 -78.5t-85 -32.5q-44 0 -69.5 32.5t-16.5 78.5z" />
<glyph unicode="&#xa2;" d="M367 643q35 167 166.5 288.5t300.5 143.5l47 228h80l-48 -228q215 -8 265 -125q-33 -64 -41 -192h-80l10 51q20 89 -27.5 140.5t-167.5 51.5q-148 0 -268 -105.5t-151 -254.5q-35 -158 40 -270.5t232 -112.5q152 0 371 90l16 -69q-199 -89 -389 -95l-57 -274h-80l57 274 q-168 27 -241 153.5t-35 305.5z" />
<glyph unicode="&#xa3;" d="M188 176q20 89 90.5 146t159.5 57q52 0 88 -16.5t64 -53.5q6 35 5.5 77.5t-3 64.5t-11.5 79t-10 66h-256l17 74h233q-21 131 0 235q33 157 141 252.5t263 95.5q83 0 150.5 -34.5t102.5 -101.5t17 -152q-10 -53 -34.5 -90t-61.5 -37q-27 0 -35 25t0 50q9 45 55 88 q7 81 -58.5 130t-150.5 49q-122 0 -199.5 -77.5t-105.5 -203.5q-18 -91 0 -229h305l-16 -74h-285q31 -213 6 -324l-10 -39q15 -29 35 -58.5t46.5 -59t59 -48t64.5 -18.5q50 0 93 32t68 76t36 93l67 -10q-15 -68 -52 -127t-96.5 -98.5t-127.5 -39.5q-39 0 -74.5 14.5t-65 42 t-49 52t-43.5 59.5q-39 -72 -113 -120t-149 -48q-84 0 -130.5 58.5t-29.5 142.5zM274 174q-11 -52 17 -88.5t80 -36.5q60 0 118.5 49t79.5 111q-23 34 -36 49.5t-40.5 31t-62.5 15.5q-58 0 -101 -36t-55 -95z" />
<glyph unicode="&#xa4;" d="M23 219l223 219q-103 139 -103 299t103 299l-223 219l67 66l221 -219q130 106 303 106q174 0 304 -106l221 219l67 -66l-223 -219q102 -138 102 -299t-102 -299l223 -219l-67 -65l-221 219q-131 -107 -304 -107q-172 0 -303 107l-221 -219zM223 737q0 -166 112.5 -278.5 t278.5 -112.5t279 112.5t113 278.5t-113 279.5t-279 113.5t-278.5 -113.5t-112.5 -279.5z" />
<glyph unicode="&#xa5;" d="M301 0l16 74h275l96 456h-297l17 74h254l-218 551h-120l16 74h393l-16 -74h-187l215 -547l449 547h-190l16 74h393l-16 -74h-119l-451 -551h256l-16 -74h-299l-96 -456h274l-16 -74h-629z" />
<glyph unicode="&#xa6;" d="M569 147h90v-737h-90v737zM569 885v737h90v-737h-90z" />
<glyph unicode="&#xa7;" d="M336 12q6 28 23 54t42 26q24 0 31 -23.5t2 -50.5q-3 -19 -26 -57q9 -67 55 -100t121 -33q83 0 150 43.5t85 124.5q9 43 -12 87.5t-61 85t-90 83t-99 86.5t-88 88.5t-58 97t-8 105.5q14 67 58 116t117 91q-55 64 -35 168q25 114 120.5 181.5t210.5 67.5q111 0 185 -64.5 t51 -172.5q-18 -86 -61 -86q-22 0 -31 16.5t-4 38.5q6 25 28 66q3 42 -26.5 72.5t-69.5 43.5t-82 13q-84 0 -150.5 -46.5t-84.5 -127.5q-10 -45 10.5 -91.5t59.5 -87t88.5 -82.5t98 -84.5t87 -85.5t57.5 -94.5t8 -103.5q-26 -125 -182 -205q34 -47 46 -89.5t-1 -100.5 q-15 -70 -69.5 -123.5t-122.5 -79t-136 -25.5q-120 0 -191 70t-46 188zM489 627q-20 -94 101 -201l227 -205q52 22 88.5 62.5t46.5 91.5q11 56 -13 99.5t-71 84.5l-247 229q-111 -64 -132 -161z" />
<glyph unicode="&#xa8;" d="M537 1145q9 41 44 70.5t76 29.5t65 -29.5t15 -70.5t-45.5 -71t-77.5 -30t-63.5 30t-13.5 71zM979 1145q9 41 44.5 70.5t76.5 29.5t65 -29.5t15 -70.5t-45.5 -71t-77.5 -30t-64 30t-14 71z" />
<glyph unicode="&#xa9;" d="M171.5 400q-1.5 94 21.5 214q29 138 87.5 249.5t129 183t154.5 119t162.5 67.5t154.5 20q63 0 122 -14t116.5 -45t99 -80.5t70.5 -120.5t30.5 -165t-21.5 -214q-29 -138 -87.5 -249.5t-129.5 -182.5t-155 -119t-163 -68t-155 -20q-63 0 -122 14t-116 45t-98.5 80.5 t-70 120.5t-30 165zM259.5 425q0.5 -83 24 -146t58 -106.5t82.5 -71t98 -40t103 -12.5q65 0 131.5 17.5t137.5 60t131.5 105t110.5 161.5t76 221q29 127 18 222t-42.5 160.5t-86.5 106.5t-113.5 59t-123.5 18t-131 -17.5t-137 -60t-131 -105.5t-110 -162t-76 -221 q-20 -106 -19.5 -189zM485 623q20 95 57.5 166t84.5 109.5t95 56.5t97 18q106 0 156 -47l22 24l35 -12q-21 -31 -37 -107l-12 -69h-43q29 151 -131 151q-50 0 -93.5 -25.5t-74.5 -69t-52.5 -94t-33.5 -106.5t-12 -108.5t11 -98.5t43 -74t81 -28q83 0 142.5 49t78.5 134h39 l-27 -123q-69 -57 -126.5 -88t-122.5 -31q-102 0 -159 93t-18 280z" />
<glyph unicode="&#xaa;" d="M414 453l16 73h592l-16 -73h-592zM487 856q12 53 52.5 90t86 52t95.5 18l237 18l9 39q8 38 9.5 64.5t-16.5 40.5t-61 14q-110 0 -209 -51l-14 -72h-74l25 115q138 69 274 69q99 0 135 -36q14 -14 17.5 -38.5t0.5 -40t-10 -46.5l-63 -299h111l-13 -62h-184l8 41 q-140 -55 -256 -55q-36 0 -66.5 7t-55.5 22.5t-35.5 43.5t-2.5 66zM561 856q-9 -43 21 -60.5t77 -17.5q92 0 259 64l28 133q-155 -4 -256 -25q-115 -24 -129 -94z" />
<glyph unicode="&#xab;" d="M279 614l651 508l43 -53l-590 -455l397 -454l-65 -54zM614 614l652 508l43 -53l-590 -455l397 -454l-65 -54z" />
<glyph unicode="&#xac;" d="M70 829v91h1089v-566h-90v475h-999z" />
<glyph unicode="&#xad;" d="M492 578l16 73h491l-16 -73h-491z" />
<glyph unicode="&#xae;" d="M171.5 400q-1.5 94 21.5 214q29 138 87.5 249.5t129 183t154.5 119t162.5 67.5t154.5 20q63 0 122 -14t116.5 -45t99 -80.5t70.5 -120.5t30.5 -165t-21.5 -214q-29 -138 -87.5 -249.5t-129.5 -182.5t-155 -119t-163 -68t-155 -20q-63 0 -122 14t-116 45t-98.5 80.5 t-70 120.5t-30 165zM259.5 425q0.5 -83 24 -146t58 -106.5t82.5 -71t98 -40t103 -12.5q65 0 131.5 17.5t137.5 60t131.5 105t110.5 161.5t76 221q29 127 18 222t-42.5 160.5t-86.5 106.5t-113.5 59t-123.5 18t-131 -17.5t-137 -60t-131 -105.5t-110 -162t-76 -221 q-20 -106 -19.5 -189zM385 250l10 53h78l129 604l-76 8l13 54l106 -4q34 -1 98 3.5t91 4.5q74 0 121 -51t28 -138q-14 -74 -68 -121t-131 -63l136 -297h73l-10 -53h-117l-157 342h-109l-61 -289h110l-10 -53h-254zM612 641h62q47 0 80 4.5t68 18t57 42.5t32 74 q15 67 -13.5 100t-92.5 33q-23 0 -74 -3t-63 -3z" />
<glyph unicode="&#xaf;" d="M604 1108l17 74h491l-16 -74h-492z" />
<glyph unicode="&#xb0;" d="M219 1124q0 164 115.5 280t279.5 116t280 -116t116 -280q0 -163 -116 -279t-280 -116t-279.5 116t-115.5 279zM305 1124q0 -128 90.5 -218.5t218.5 -90.5t219 91t91 218q0 128 -91 219t-219 91q-127 0 -218 -91t-91 -219z" />
<glyph unicode="&#xb1;" d="M70 96v90h1089v-90h-1089zM70 788v91h499v499h90v-499h500v-91h-500v-499h-90v499h-499z" />
<glyph unicode="&#xb2;" d="M508 578l12 57l35 31q20 18 77.5 65t99.5 84t91 85t80 94.5t39 86.5q10 50 -19.5 82.5t-80.5 32.5q-67 0 -113 -57q-5 -28 -25.5 -51t-48.5 -23q-14 0 -19.5 10t-2.5 25q14 67 83.5 110t139.5 43q76 0 125 -46.5t35 -121.5q-24 -110 -137 -211l-273 -239h275l55 74 l57 -15l-80 -116h-405z" />
<glyph unicode="&#xb3;" d="M526 616l37 52q70 -45 168 -45q74 0 127.5 36t67.5 107q15 68 -16 105.5t-99 37.5h-55l12 58h39q130 0 151 100q12 58 -12 93.5t-80 35.5q-40 0 -86 -27q-6 -30 -30 -56t-52 -26q-14 0 -21 10t-5 25q10 41 69.5 86t151.5 45q76 0 115 -52t22 -128q-8 -44 -30 -70.5 t-68 -60.5q47 -47 57 -63q23 -41 10 -111q-22 -98 -100.5 -150.5t-179.5 -52.5q-125 0 -193 51z" />
<glyph unicode="&#xb4;" d="M696 1030l418 291l57 -92l-440 -260z" />
<glyph unicode="&#xb6;" d="M389 897q9 43 26 83.5t53.5 87.5t85.5 81t128.5 57t177.5 23h432l-16 -74h-80l-287 -1348h-80l287 1348h-219l-287 -1348h-80l162 762q-155 -12 -245.5 80t-57.5 248z" />
<glyph unicode="&#xb7;" d="M512 737q0 43 29.5 73t72.5 30t73 -30t30 -73t-30 -72.5t-73 -29.5t-72.5 29.5t-29.5 72.5z" />
<glyph unicode="&#xb8;" d="M305 -430l17 76q99 -54 194 -54q38 0 75 9.5t70 35.5t41 64q5 25 -6 43t-33 26t-43 11.5t-45 3.5l-100 -6l103 239h75l-63 -157h39q81 0 128 -41.5t31 -120.5q-10 -47 -39.5 -83t-69.5 -56.5t-83 -30.5t-88 -10q-126 0 -203 51z" />
<glyph unicode="&#xb9;" d="M547 578l12 57h158l112 526q-55 -12 -114 -12h-35l2 57h33q104 0 141 33q14 14 31 14q6 0 10.5 -1t7.5 -4t4.5 -5.5t2 -7t0.5 -8t-1 -9.5l-1.5 -9t-2 -9.5t-2.5 -9.5l-117 -555h152l-12 -57h-381z" />
<glyph unicode="&#xba;" d="M414 453l16 73h592l-16 -73h-592zM537 985q26 117 126 192.5t218 75.5q119 0 187 -75.5t42 -192.5q-24 -117 -124.5 -192.5t-219.5 -75.5q-118 0 -185.5 75.5t-43.5 192.5zM610 985q-19 -89 30.5 -148t139.5 -59t163.5 59t92.5 148q20 88 -29 147.5t-139 59.5t-164 -59 t-94 -148z" />
<glyph unicode="&#xbb;" d="M182 160l590 454l-397 455l63 53l439 -508l-654 -508zM518 160l590 454l-397 455l63 53l438 -508l-653 -508z" />
<glyph unicode="&#xbc;" d="M221 578l12 57h158l113 526q-56 -12 -115 -12h-35l2 57h33q104 0 141 33q14 14 31 14q6 0 10.5 -1t7.5 -4t5 -5.5t2 -7.5t0.5 -7.5t-0.5 -9t-1.5 -9.5t-2.5 -10t-2 -9l-117 -555h151l-12 -57h-381zM313 -23l842 1311l47 -33l-842 -1310zM688 174l12 57q111 135 191.5 250 t136.5 234l64 -19q-54 -114 -133.5 -224t-190.5 -241h262l49 234h72l-49 -234h94l-12 -57h-94l-25 -117h94l-12 -57h-277l13 57h110l25 117h-330z" />
<glyph unicode="&#xbd;" d="M221 578l12 57h158l113 526q-56 -12 -115 -12h-35l2 57h33q104 0 141 33q14 14 31 14q6 0 10.5 -1t7.5 -4t5 -5.5t2 -7.5t0.5 -7.5t-0.5 -9t-1.5 -9.5t-2.5 -10t-2 -9l-117 -555h151l-12 -57h-381zM276 -23l842 1311l47 -33l-841 -1310zM680 0l12 57l35 31q20 18 77.5 65 t99.5 84t91 85.5t80 95t39 86.5q10 50 -19.5 82t-80.5 32q-67 0 -113 -57q-5 -28 -25.5 -51t-48.5 -23q-14 0 -19.5 10t-2.5 25q14 67 84 110.5t139 43.5q77 0 126.5 -47t33.5 -121q-24 -110 -137 -211l-273 -240h275l55 74l57 -14l-80 -117h-405z" />
<glyph unicode="&#xbe;" d="M188 616l37 52q70 -45 168 -45q74 0 127.5 36t67.5 107q15 68 -16 105.5t-99 37.5h-55l12 58h39q131 0 152 100q12 58 -12.5 93.5t-80.5 35.5q-40 0 -86 -27q-6 -30 -30 -56t-52 -26q-14 0 -21 10t-5 25q4 16 19.5 37t42 43t68.5 36.5t91 14.5q76 0 115 -52t22 -128 q-8 -44 -30 -70.5t-68 -60.5q3 -3 15.5 -15t14.5 -14.5t11.5 -13t11.5 -14.5t8 -14t7 -16t3.5 -16.5t2 -20.5t-1.5 -23t-4 -27q-22 -98 -101 -150.5t-180 -52.5q-125 0 -193 51zM322 -23l841 1311l47 -33l-841 -1310zM711 174l12 57q111 135 191.5 250t136.5 234l63 -19 q-91 -192 -323 -465h262l49 234h72l-50 -234h95l-13 -57h-94l-25 -117h95l-13 -57h-276l12 57h111l24 117h-329z" />
<glyph unicode="&#xbf;" d="M330 -141q11 50 31.5 93t56 86t62 70.5t77.5 75.5q94 87 132 150t59 176h75l-8 -39q-13 -62 -40 -117.5t-59.5 -97t-69.5 -80t-73 -73.5t-66.5 -69t-54 -75t-32.5 -84q-19 -92 23.5 -155.5t131.5 -63.5t166 51.5t105 136.5q-9 46 8 88.5t53 42.5q55 0 35 -96 q-25 -122 -134 -209.5t-247 -87.5q-117 0 -186 80t-45 197zM727 750q9 46 48 78t85 32q44 0 69.5 -32t16.5 -78q-6 -29 -26 -54t-48 -40t-57 -15q-46 0 -71.5 32.5t-16.5 76.5z" />
<glyph unicode="&#xc0;" d="M51 0l17 74h98l729 1284l201 -1284h98l-16 -74h-375l16 74h191l-49 319h-535l-178 -319h190l-16 -74h-371zM467 467h483l-102 680zM582 1622l94 92l295 -291l-60 -61z" />
<glyph unicode="&#xc1;" d="M51 0l17 74h98l729 1284l201 -1284h98l-16 -74h-375l16 74h191l-49 319h-535l-178 -319h190l-16 -74h-371zM467 467h483l-102 680zM696 1423l418 291l57 -92l-440 -260z" />
<glyph unicode="&#xc2;" d="M51 0l17 74h98l729 1284l201 -1284h98l-16 -74h-375l16 74h191l-49 319h-535l-178 -319h190l-16 -74h-371zM467 467h483l-102 680zM494 1413l401 297l274 -297l-57 -47l-248 201l-334 -201z" />
<glyph unicode="&#xc3;" d="M51 0l17 74h98l729 1284l201 -1284h98l-16 -74h-375l16 74h191l-49 319h-535l-178 -319h190l-16 -74h-371zM467 467h483l-102 680zM526 1442q13 84 66 143.5t137 59.5q62 0 148 -58q29 -19 43 -28t36.5 -18t40.5 -9q43 0 69.5 36.5t37.5 84.5h88q-15 -86 -70 -146.5 t-141 -60.5q-58 0 -147 63l-9 6q-9 6 -11 7t-10.5 6.5t-12 7t-11.5 6t-12.5 6t-12 4.5t-13 4t-12.5 2t-13 1q-45 0 -72.5 -35.5t-34.5 -81.5h-84z" />
<glyph unicode="&#xc4;" d="M51 0l17 74h98l729 1284l201 -1284h98l-16 -74h-375l16 74h191l-49 319h-535l-178 -319h190l-16 -74h-371zM467 467h483l-102 680zM537 1538q9 41 44 70.5t76 29.5t65 -29.5t15 -70.5t-45.5 -70.5t-77.5 -29.5t-63.5 29.5t-13.5 70.5zM979 1538q9 41 44.5 70.5t76.5 29.5 t65 -29.5t15 -70.5t-45.5 -70.5t-77.5 -29.5t-64 29.5t-14 70.5z" />
<glyph unicode="&#xc5;" d="M51 0l17 74h98l729 1284l201 -1284h98l-16 -74h-375l16 74h191l-49 319h-535l-178 -319h190l-16 -74h-371zM467 467h483l-102 680zM690 1544q15 69 75.5 118.5t129.5 49.5t107.5 -49.5t23.5 -118.5q-13 -69 -73.5 -118.5t-129.5 -49.5t-108 49.5t-25 118.5zM776 1544 q-6 -36 11.5 -65t52.5 -29t64.5 29t35.5 65q8 37 -9 65.5t-52 28.5t-65 -28.5t-38 -65.5z" />
<glyph unicode="&#xc6;" d="M47 0l16 74h60l639 1155h657l-67 -309h-80l10 43q22 105 -8 148.5t-127 43.5h-182l-97 -448h185l30 141h80l-76 -352h-79l30 137h-184l-119 -559h158q49 0 76.5 1.5t55 10t41.5 21t28.5 38.5t24 59t20.5 87l16 71h80l-78 -362h-614l16 74h96l68 321h-346l-176 -321h180 l-16 -74h-318zM420 469h319l146 686h-88z" />
<glyph unicode="&#xc7;" d="M286 374.5q-9 108.5 23 252.5q24 114 66 210t94 163t110.5 117t121.5 79t121.5 43t115.5 14q159 0 283 -84l41 78l67 -24q-44 -74 -74 -207l-22 -144l-78 -12q28 158 -23.5 239t-205.5 81q-88 0 -167 -34t-137 -89.5t-105 -130t-77 -151.5t-47 -157q-17 -79 -19.5 -156.5 t13.5 -152.5t50 -132.5t97.5 -92.5t149.5 -35q155 0 255.5 92.5t133.5 251.5h80l-51 -239q-215 -179 -440 -179q-68 0 -129.5 21.5t-117 69.5t-88 124t-41.5 184.5zM305 -430l17 76q99 -54 194 -54q38 0 75 9.5t70 35.5t41 64q5 25 -6 43t-33 26t-43 11.5t-45 3.5l-100 -6 l103 239h75l-63 -157h39q81 0 128 -41.5t31 -120.5q-10 -47 -39.5 -83t-69.5 -56.5t-83 -30.5t-88 -10q-126 0 -203 51z" />
<glyph unicode="&#xc8;" d="M96 0l17 74h211l229 1081h-211l16 74h947l-70 -324h-80l6 31q9 44 13.5 71t6 53.5t-5 40.5t-17 26t-32 17.5t-48.5 8t-68 2.5h-377l-94 -446h335l37 178h80l-96 -453h-80l43 201h-336l-119 -561h369q46 0 79 2t60.5 9t46 13.5t34.5 24t25 31.5t19 44t15.5 54.5t15.5 69.5 l10 47h80l-78 -369h-983zM582 1622l94 92l295 -291l-60 -61z" />
<glyph unicode="&#xc9;" d="M96 0l17 74h211l229 1081h-211l16 74h947l-70 -324h-80l6 31q9 44 13.5 71t6 53.5t-5 40.5t-17 26t-32 17.5t-48.5 8t-68 2.5h-377l-94 -446h335l37 178h80l-96 -453h-80l43 201h-336l-119 -561h369q46 0 79 2t60.5 9t46 13.5t34.5 24t25 31.5t19 44t15.5 54.5t15.5 69.5 l10 47h80l-78 -369h-983zM696 1423l418 291l57 -92l-440 -260z" />
<glyph unicode="&#xca;" d="M96 0l17 74h211l229 1081h-211l16 74h947l-70 -324h-80l6 31q9 44 13.5 71t6 53.5t-5 40.5t-17 26t-32 17.5t-48.5 8t-68 2.5h-377l-94 -446h335l37 178h80l-96 -453h-80l43 201h-336l-119 -561h369q46 0 79 2t60.5 9t46 13.5t34.5 24t25 31.5t19 44t15.5 54.5t15.5 69.5 l10 47h80l-78 -369h-983zM494 1413l401 297l274 -297l-57 -47l-248 201l-334 -201z" />
<glyph unicode="&#xcb;" d="M96 0l17 74h211l229 1081h-211l16 74h947l-70 -324h-80l6 31q9 44 13.5 71t6 53.5t-5 40.5t-17 26t-32 17.5t-48.5 8t-68 2.5h-377l-94 -446h335l37 178h80l-96 -453h-80l43 201h-336l-119 -561h369q46 0 79 2t60.5 9t46 13.5t34.5 24t25 31.5t19 44t15.5 54.5t15.5 69.5 l10 47h80l-78 -369h-983zM537 1538q9 41 44 70.5t76 29.5t65 -29.5t15 -70.5t-45.5 -70.5t-77.5 -29.5t-63.5 29.5t-13.5 70.5zM979 1538q9 41 44.5 70.5t76.5 29.5t65 -29.5t15 -70.5t-45.5 -70.5t-77.5 -29.5t-64 29.5t-14 70.5z" />
<glyph unicode="&#xcc;" d="M240 0l16 74h336l229 1081h-336l17 74h749l-16 -74h-334l-229 -1081h334l-17 -74h-749zM582 1622l94 92l295 -291l-60 -61z" />
<glyph unicode="&#xcd;" d="M240 0l16 74h336l229 1081h-336l17 74h749l-16 -74h-334l-229 -1081h334l-17 -74h-749zM696 1423l418 291l57 -92l-440 -260z" />
<glyph unicode="&#xce;" d="M240 0l16 74h336l229 1081h-336l17 74h749l-16 -74h-334l-229 -1081h334l-17 -74h-749zM494 1413l401 297l274 -297l-57 -47l-248 201l-334 -201z" />
<glyph unicode="&#xcf;" d="M240 0l16 74h336l229 1081h-336l17 74h749l-16 -74h-334l-229 -1081h334l-17 -74h-749zM537 1538q9 41 44 70.5t76 29.5t65 -29.5t15 -70.5t-45.5 -70.5t-77.5 -29.5t-63.5 29.5t-13.5 70.5zM979 1538q9 41 44.5 70.5t76.5 29.5t65 -29.5t15 -70.5t-45.5 -70.5 t-77.5 -29.5t-64 29.5t-14 70.5z" />
<glyph unicode="&#xd0;" d="M115 0l4 74l174 24l106 500h-166l17 74h166l96 458l-160 25l25 74q15 -2 47.5 -9.5t62 -11.5t60.5 -4q37 0 128.5 12.5t145.5 12.5q105 0 183.5 -32t126 -89.5t70.5 -137.5t21.5 -174.5t-24.5 -203.5q-30 -142 -84.5 -250t-117 -171.5t-139.5 -103.5t-144.5 -53.5 t-139.5 -13.5q-45 0 -132 12.5t-132 12.5q-37 0 -110.5 -12t-83.5 -13zM373 98l213 -24q176 -21 320.5 104.5t199.5 380.5q34 174 23.5 294t-62.5 191t-126.5 97.5t-168.5 13.5l-180 -25l-96 -458h237l-16 -74h-238z" />
<glyph unicode="&#xd1;" d="M66 0l16 74h156l229 1081h-156l17 74h260l387 -1098h4l217 1024h-199l17 74h409l-16 -74h-131l-246 -1155h-94l-395 1112h-4l-220 -1038h193l-16 -74h-428zM526 1442q13 84 66 143.5t137 59.5q62 0 148 -58q29 -19 43 -28t36.5 -18t40.5 -9q43 0 69.5 36.5t37.5 84.5h88 q-15 -86 -70 -146.5t-141 -60.5q-58 0 -147 63l-9 6q-9 6 -11 7t-10.5 6.5t-12 7t-11.5 6t-12.5 6t-12 4.5t-13 4t-12.5 2t-13 1q-45 0 -72.5 -35.5t-34.5 -81.5h-84z" />
<glyph unicode="&#xd2;" d="M243 400.5q0 97.5 25 213.5q29 138 83 249.5t117 183t136.5 119t142 67.5t134.5 20t125.5 -20.5t114.5 -66.5t86 -120t39.5 -181.5t-23.5 -250.5q-29 -138 -83 -249.5t-117.5 -182.5t-137.5 -119t-142.5 -68t-134.5 -20q-54 0 -105 14.5t-99 44.5t-83 81.5t-56.5 119.5 t-21.5 165.5zM330 394.5q4 -94.5 27 -160t66.5 -107t93.5 -60t108 -18.5q74 0 147 30.5t144 94t130 177t91 263.5q28 125 23.5 219.5t-28 160.5t-67 107.5t-93.5 60t-108 18.5t-116 -18.5t-118.5 -61t-111.5 -106t-95 -161.5t-69 -219q-28 -125 -24 -219.5zM582 1622l94 92 l295 -291l-60 -61z" />
<glyph unicode="&#xd3;" d="M243 400.5q0 97.5 25 213.5q29 138 83 249.5t117 183t136.5 119t142 67.5t134.5 20t125.5 -20.5t114.5 -66.5t86 -120t39.5 -181.5t-23.5 -250.5q-29 -138 -83 -249.5t-117.5 -182.5t-137.5 -119t-142.5 -68t-134.5 -20q-54 0 -105 14.5t-99 44.5t-83 81.5t-56.5 119.5 t-21.5 165.5zM330 394.5q4 -94.5 27 -160t66.5 -107t93.5 -60t108 -18.5q74 0 147 30.5t144 94t130 177t91 263.5q28 125 23.5 219.5t-28 160.5t-67 107.5t-93.5 60t-108 18.5t-116 -18.5t-118.5 -61t-111.5 -106t-95 -161.5t-69 -219q-28 -125 -24 -219.5zM696 1423 l418 291l57 -92l-440 -260z" />
<glyph unicode="&#xd4;" d="M243 400.5q0 97.5 25 213.5q29 138 83 249.5t117 183t136.5 119t142 67.5t134.5 20t125.5 -20.5t114.5 -66.5t86 -120t39.5 -181.5t-23.5 -250.5q-29 -138 -83 -249.5t-117.5 -182.5t-137.5 -119t-142.5 -68t-134.5 -20q-54 0 -105 14.5t-99 44.5t-83 81.5t-56.5 119.5 t-21.5 165.5zM330 394.5q4 -94.5 27 -160t66.5 -107t93.5 -60t108 -18.5q74 0 147 30.5t144 94t130 177t91 263.5q28 125 23.5 219.5t-28 160.5t-67 107.5t-93.5 60t-108 18.5t-116 -18.5t-118.5 -61t-111.5 -106t-95 -161.5t-69 -219q-28 -125 -24 -219.5zM494 1413 l401 297l274 -297l-57 -47l-248 201l-334 -201z" />
<glyph unicode="&#xd5;" d="M243 400.5q0 97.5 25 213.5q29 138 83 249.5t117 183t136.5 119t142 67.5t134.5 20t125.5 -20.5t114.5 -66.5t86 -120t39.5 -181.5t-23.5 -250.5q-29 -138 -83 -249.5t-117.5 -182.5t-137.5 -119t-142.5 -68t-134.5 -20q-54 0 -105 14.5t-99 44.5t-83 81.5t-56.5 119.5 t-21.5 165.5zM330 394.5q4 -94.5 27 -160t66.5 -107t93.5 -60t108 -18.5q74 0 147 30.5t144 94t130 177t91 263.5q28 125 23.5 219.5t-28 160.5t-67 107.5t-93.5 60t-108 18.5t-116 -18.5t-118.5 -61t-111.5 -106t-95 -161.5t-69 -219q-28 -125 -24 -219.5zM526 1442 q13 84 66 143.5t137 59.5q62 0 148 -58q29 -19 43 -28t36.5 -18t40.5 -9q43 0 69.5 36.5t37.5 84.5h88q-15 -86 -70 -146.5t-141 -60.5q-58 0 -147 63l-9 6q-9 6 -11 7t-10.5 6.5t-12 7t-11.5 6t-12.5 6t-12 4.5t-13 4t-12.5 2t-13 1q-45 0 -72.5 -35.5t-34.5 -81.5h-84z " />
<glyph unicode="&#xd6;" d="M243 400.5q0 97.5 25 213.5q29 138 83 249.5t117 183t136.5 119t142 67.5t134.5 20t125.5 -20.5t114.5 -66.5t86 -120t39.5 -181.5t-23.5 -250.5q-29 -138 -83 -249.5t-117.5 -182.5t-137.5 -119t-142.5 -68t-134.5 -20q-54 0 -105 14.5t-99 44.5t-83 81.5t-56.5 119.5 t-21.5 165.5zM330 394.5q4 -94.5 27 -160t66.5 -107t93.5 -60t108 -18.5q74 0 147 30.5t144 94t130 177t91 263.5q28 125 23.5 219.5t-28 160.5t-67 107.5t-93.5 60t-108 18.5t-116 -18.5t-118.5 -61t-111.5 -106t-95 -161.5t-69 -219q-28 -125 -24 -219.5zM537 1538 q9 41 44 70.5t76 29.5t65 -29.5t15 -70.5t-45.5 -70.5t-77.5 -29.5t-63.5 29.5t-13.5 70.5zM979 1538q9 41 44.5 70.5t76.5 29.5t65 -29.5t15 -70.5t-45.5 -70.5t-77.5 -29.5t-64 29.5t-14 70.5z" />
<glyph unicode="&#xd7;" d="M70 258l481 479l-481 482l63 63l481 -481l482 481l63 -63l-481 -482l481 -479l-63 -65l-482 481l-481 -481z" />
<glyph unicode="&#xd8;" d="M184 -2l121 145q-52 86 -58.5 223t21.5 248q29 138 83 249.5t117 183t136.5 119t142 67.5t134.5 20q158 0 262 -110l98 119l57 -41l-112 -136q52 -86 58.5 -222.5t-21.5 -248.5q-29 -138 -83 -249.5t-117.5 -182.5t-137.5 -119t-142.5 -68t-134.5 -20q-168 0 -260 111 l-108 -129zM333 407.5q2 -116.5 36 -190.5l716 858q-35 50 -93 77.5t-128 27.5q-58 0 -116 -18.5t-118.5 -61t-111.5 -106t-95 -161.5t-69 -219q-23 -90 -21 -206.5zM403 154q79 -105 222 -105q74 0 147 30.5t144 94t130 177t91 263.5q23 90 21 207t-36 191z" />
<glyph unicode="&#xd9;" d="M322 352l170 803h-144l17 74h376l-16 -74h-154l-165 -778q-38 -177 14.5 -252.5t204.5 -75.5t236 75.5t122 252.5l166 778h-154l17 74h377l-17 -74h-143l-170 -803q-43 -200 -153 -288.5t-298 -88.5t-258.5 88.5t-27.5 288.5zM582 1622l94 92l295 -291l-60 -61z" />
<glyph unicode="&#xda;" d="M322 352l170 803h-144l17 74h376l-16 -74h-154l-165 -778q-38 -177 14.5 -252.5t204.5 -75.5t236 75.5t122 252.5l166 778h-154l17 74h377l-17 -74h-143l-170 -803q-43 -200 -153 -288.5t-298 -88.5t-258.5 88.5t-27.5 288.5zM696 1423l418 291l57 -92l-440 -260z" />
<glyph unicode="&#xdb;" d="M322 352l170 803h-144l17 74h376l-16 -74h-154l-165 -778q-38 -177 14.5 -252.5t204.5 -75.5t236 75.5t122 252.5l166 778h-154l17 74h377l-17 -74h-143l-170 -803q-43 -200 -153 -288.5t-298 -88.5t-258.5 88.5t-27.5 288.5zM494 1413l401 297l274 -297l-57 -47 l-248 201l-334 -201z" />
<glyph unicode="&#xdc;" d="M322 352l170 803h-144l17 74h376l-16 -74h-154l-165 -778q-38 -177 14.5 -252.5t204.5 -75.5t236 75.5t122 252.5l166 778h-154l17 74h377l-17 -74h-143l-170 -803q-43 -200 -153 -288.5t-298 -88.5t-258.5 88.5t-27.5 288.5zM537 1538q9 41 44 70.5t76 29.5t65 -29.5 t15 -70.5t-45.5 -70.5t-77.5 -29.5t-63.5 29.5t-13.5 70.5zM979 1538q9 41 44.5 70.5t76.5 29.5t65 -29.5t15 -70.5t-45.5 -70.5t-77.5 -29.5t-64 29.5t-14 70.5z" />
<glyph unicode="&#xdd;" d="M301 0l16 74h275l96 461l-244 620h-120l16 74h393l-16 -74h-187l215 -547l449 547h-190l16 74h393l-16 -74h-119l-510 -620l-96 -461h274l-16 -74h-629zM696 1423l418 291l57 -92l-440 -260z" />
<glyph unicode="&#xde;" d="M201 0l16 74h174l230 1081h-175l17 74h438l-16 -74h-185l-28 -131h270q137 0 206 -69t40 -207q-23 -103 -90 -174t-160 -103.5t-207 -32.5h-184l-76 -364h184l-16 -74h-438zM563 512h230q106 0 196 66t113 170q17 82 -22 142t-111 60h-312z" />
<glyph unicode="&#xdf;" d="M133 0l17 74h163l168 790q22 104 64.5 182t97.5 121.5t115 64.5t125 21q155 0 239.5 -82.5t53.5 -226.5q-24 -113 -92.5 -186.5t-180.5 -91.5v-4q85 -3 142 -51t75.5 -123t-0.5 -162q-32 -148 -139 -249.5t-252 -101.5q-118 0 -165 71t-21 192l4 26h74 q-23 -96 6.5 -155.5t122.5 -59.5q103 0 181 79.5t101 186.5q10 59 8.5 104t-21.5 78.5t-47 56t-68.5 36.5t-85 20.5t-97.5 7.5l18 82q52 2 92.5 8t84.5 21t75.5 39t57 64.5t36.5 95.5q26 121 -30.5 186.5t-177.5 65.5q-52 0 -95.5 -13t-74 -33.5t-55.5 -53t-41 -65 t-29.5 -76.5t-21.5 -80t-18 -82q-3 -17 -5 -25l-160 -752h-244z" />
<glyph unicode="&#xe0;" d="M205 197q21 96 98 157.5t234.5 95.5t404.5 37l25 117q12 61 12 101t-35.5 60.5t-116.5 20.5q-172 0 -329 -94l-25 -114h-80l37 170q212 112 412 112q151 0 194.5 -51.5t12.5 -192.5l-115 -542h174l-16 -74h-254l16 78q-250 -103 -428 -103q-114 0 -179 55.5t-42 166.5z M291 197q-16 -79 29.5 -113.5t128.5 -34.5q161 0 423 113l54 252q-178 -6 -299.5 -23t-190.5 -46t-101.5 -64t-43.5 -84zM582 1229l94 92l295 -291l-60 -61z" />
<glyph unicode="&#xe1;" d="M205 197q21 96 98 157.5t234.5 95.5t404.5 37l25 117q12 61 12 101t-35.5 60.5t-116.5 20.5q-172 0 -329 -94l-25 -114h-80l37 170q212 112 412 112q151 0 194.5 -51.5t12.5 -192.5l-115 -542h174l-16 -74h-254l16 78q-250 -103 -428 -103q-114 0 -179 55.5t-42 166.5z M291 197q-16 -79 29.5 -113.5t128.5 -34.5q161 0 423 113l54 252q-178 -6 -299.5 -23t-190.5 -46t-101.5 -64t-43.5 -84zM696 1030l418 291l57 -92l-440 -260z" />
<glyph unicode="&#xe2;" d="M205 197q21 96 98 157.5t234.5 95.5t404.5 37l25 117q12 61 12 101t-35.5 60.5t-116.5 20.5q-172 0 -329 -94l-25 -114h-80l37 170q212 112 412 112q151 0 194.5 -51.5t12.5 -192.5l-115 -542h174l-16 -74h-254l16 78q-250 -103 -428 -103q-114 0 -179 55.5t-42 166.5z M291 197q-16 -79 29.5 -113.5t128.5 -34.5q161 0 423 113l54 252q-178 -6 -299.5 -23t-190.5 -46t-101.5 -64t-43.5 -84zM494 1020l401 297l274 -297l-57 -47l-248 201l-334 -201z" />
<glyph unicode="&#xe3;" d="M205 197q21 96 98 157.5t234.5 95.5t404.5 37l25 117q12 61 12 101t-35.5 60.5t-116.5 20.5q-172 0 -329 -94l-25 -114h-80l37 170q212 112 412 112q151 0 194.5 -51.5t12.5 -192.5l-115 -542h174l-16 -74h-254l16 78q-250 -103 -428 -103q-114 0 -179 55.5t-42 166.5z M291 197q-16 -79 29.5 -113.5t128.5 -34.5q161 0 423 113l54 252q-178 -6 -299.5 -23t-190.5 -46t-101.5 -64t-43.5 -84zM526 1049q13 84 66 143t137 59q63 0 148 -57q29 -19 43 -28t36.5 -18t40.5 -9q43 0 69.5 36.5t37.5 84.5h88q-15 -86 -70 -146.5t-141 -60.5 q-58 0 -147 63q-76 49 -117 49q-45 0 -72.5 -35t-34.5 -81h-84z" />
<glyph unicode="&#xe4;" d="M205 197q21 96 98 157.5t234.5 95.5t404.5 37l25 117q12 61 12 101t-35.5 60.5t-116.5 20.5q-172 0 -329 -94l-25 -114h-80l37 170q212 112 412 112q151 0 194.5 -51.5t12.5 -192.5l-115 -542h174l-16 -74h-254l16 78q-250 -103 -428 -103q-114 0 -179 55.5t-42 166.5z M291 197q-16 -79 29.5 -113.5t128.5 -34.5q161 0 423 113l54 252q-178 -6 -299.5 -23t-190.5 -46t-101.5 -64t-43.5 -84zM537 1145q9 41 44 70.5t76 29.5t65 -29.5t15 -70.5t-45.5 -71t-77.5 -30t-63.5 30t-13.5 71zM979 1145q9 41 44.5 70.5t76.5 29.5t65 -29.5t15 -70.5 t-45.5 -71t-77.5 -30t-64 30t-14 71z" />
<glyph unicode="&#xe5;" d="M205 197q21 96 98 157.5t234.5 95.5t404.5 37l25 117q12 61 12 101t-35.5 60.5t-116.5 20.5q-172 0 -329 -94l-25 -114h-80l37 170q212 112 412 112q151 0 194.5 -51.5t12.5 -192.5l-115 -542h174l-16 -74h-254l16 78q-250 -103 -428 -103q-114 0 -179 55.5t-42 166.5z M291 197q-16 -79 29.5 -113.5t128.5 -34.5q161 0 423 113l54 252q-178 -6 -299.5 -23t-190.5 -46t-101.5 -64t-43.5 -84zM690 1151q15 69 75.5 118.5t129.5 49.5t107.5 -49.5t23.5 -118.5q-13 -69 -73.5 -118.5t-129.5 -49.5t-108 49.5t-25 118.5zM776 1151q-6 -36 11.5 -65 t52.5 -29t64.5 29t35.5 65q8 37 -9 65.5t-52 28.5t-65 -28.5t-38 -65.5z" />
<glyph unicode="&#xe6;" d="M125 211q25 119 121.5 181.5t306.5 62.5h152l24 116q46 215 -115 215q-89 0 -235 -69l-25 -121h-80l37 172q215 92 318 92q66 0 114.5 -30.5t61.5 -86.5q97 117 242 117q94 0 150.5 -52t67.5 -137.5t-10 -195.5l-18 -94h-467l-29 -131q-23 -108 9 -154.5t133 -46.5 q132 0 291 119l30 -59q-191 -134 -356 -134q-64 0 -115.5 26.5t-73.5 78.5q-135 -105 -294 -105q-116 0 -189.5 62.5t-50.5 173.5zM213 219q-18 -80 33.5 -125t134.5 -45q133 0 258 98l51 234h-155q-158 0 -232 -42t-90 -120zM784 455h398q15 62 16 117.5t-13.5 105 t-55.5 79t-105 29.5q-169 0 -213 -204z" />
<glyph unicode="&#xe7;" d="M281 410q41 196 195 323t351 127q58 0 110 -11.5t97 -43t60 -78.5l-39 -186h-74l8 37q23 109 -24.5 158.5t-159.5 49.5q-159 0 -281.5 -103t-154.5 -261q-35 -165 45.5 -269t244.5 -104q177 0 363 84l12 -67q-88 -42 -195 -66.5t-200 -24.5q-195 0 -297.5 120t-60.5 315z M305 -430l17 76q99 -54 194 -54q38 0 75 9.5t70 35.5t41 64q5 25 -6 43t-33 26t-43 11.5t-45 3.5l-100 -6l103 239h75l-63 -157h39q81 0 128 -41.5t31 -120.5q-10 -47 -39.5 -83t-69.5 -56.5t-83 -30.5t-88 -10q-126 0 -203 51z" />
<glyph unicode="&#xe8;" d="M275.5 218.5q-19.5 78.5 0.5 178.5q42 194 196.5 328.5t346.5 134.5q185 0 270.5 -110t45.5 -295l-21 -74h-754q-29 -164 64.5 -248t267.5 -84q91 0 181 22.5t210 67.5l13 -65q-228 -99 -449 -99q-95 0 -172 28.5t-128.5 82.5t-71 132.5zM381 455h670q38 144 -34.5 237.5 t-211.5 93.5q-137 0 -259 -94.5t-165 -236.5zM582 1229l94 92l295 -291l-60 -61z" />
<glyph unicode="&#xe9;" d="M275.5 218.5q-19.5 78.5 0.5 178.5q42 194 196.5 328.5t346.5 134.5q185 0 270.5 -110t45.5 -295l-21 -74h-754q-29 -164 64.5 -248t267.5 -84q91 0 181 22.5t210 67.5l13 -65q-228 -99 -449 -99q-95 0 -172 28.5t-128.5 82.5t-71 132.5zM381 455h670q38 144 -34.5 237.5 t-211.5 93.5q-137 0 -259 -94.5t-165 -236.5zM696 1030l418 291l57 -92l-440 -260z" />
<glyph unicode="&#xea;" d="M275.5 218.5q-19.5 78.5 0.5 178.5q42 194 196.5 328.5t346.5 134.5q185 0 270.5 -110t45.5 -295l-21 -74h-754q-29 -164 64.5 -248t267.5 -84q91 0 181 22.5t210 67.5l13 -65q-228 -99 -449 -99q-95 0 -172 28.5t-128.5 82.5t-71 132.5zM381 455h670q38 144 -34.5 237.5 t-211.5 93.5q-137 0 -259 -94.5t-165 -236.5zM494 1020l401 297l274 -297l-57 -47l-248 201l-334 -201z" />
<glyph unicode="&#xeb;" d="M275.5 218.5q-19.5 78.5 0.5 178.5q42 194 196.5 328.5t346.5 134.5q185 0 270.5 -110t45.5 -295l-21 -74h-754q-29 -164 64.5 -248t267.5 -84q91 0 181 22.5t210 67.5l13 -65q-228 -99 -449 -99q-95 0 -172 28.5t-128.5 82.5t-71 132.5zM381 455h670q38 144 -34.5 237.5 t-211.5 93.5q-137 0 -259 -94.5t-165 -236.5zM537 1145q9 41 44 70.5t76 29.5t65 -29.5t15 -70.5t-45.5 -71t-77.5 -30t-63.5 30t-13.5 71zM979 1145q9 41 44.5 70.5t76.5 29.5t65 -29.5t15 -70.5t-45.5 -71t-77.5 -30t-64 30t-14 71z" />
<glyph unicode="&#xec;" d="M182 0l17 74h415l146 692q-46 -9 -168.5 -19.5t-233.5 -13.5l4 74q364 5 424 63q31 27 52 27q31 0 14 -80l-158 -743h369l-16 -74h-865zM582 1229l94 92l295 -291l-60 -61z" />
<glyph unicode="&#xed;" d="M182 0l17 74h415l146 692q-46 -9 -168.5 -19.5t-233.5 -13.5l4 74q364 5 424 63q31 27 52 27q31 0 14 -80l-158 -743h369l-16 -74h-865zM696 1030l418 291l57 -92l-440 -260z" />
<glyph unicode="&#xee;" d="M182 0l17 74h415l146 692q-46 -9 -168.5 -19.5t-233.5 -13.5l4 74q364 5 424 63q31 27 52 27q31 0 14 -80l-158 -743h369l-16 -74h-865zM494 1020l401 297l274 -297l-57 -47l-248 201l-334 -201z" />
<glyph unicode="&#xef;" d="M182 0l17 74h415l146 692q-46 -9 -168.5 -19.5t-233.5 -13.5l4 74q364 5 424 63q31 27 52 27q31 0 14 -80l-158 -743h369l-16 -74h-865zM537 1145q9 41 44 70.5t76 29.5t65 -29.5t15 -70.5t-45.5 -71t-77.5 -30t-63.5 30t-13.5 71zM979 1145q9 41 44.5 70.5t76.5 29.5 t65 -29.5t15 -70.5t-45.5 -71t-77.5 -30t-64 30t-14 71z" />
<glyph unicode="&#xf0;" d="M289 395q24 111 93.5 207t173.5 155.5t216 59.5q16 0 49 -2t53 -2l-180 221l-243 -145l-25 55l231 137l-100 123l59 49l107 -133l225 133l25 -55l-211 -125l166 -203q94 -116 121 -157q86 -133 67 -273q-2 -17 -6 -34q-37 -179 -183 -305t-323 -126q-111 0 -192 58.5 t-113.5 155t-9.5 206.5zM375 393q-30 -142 38.5 -243t207.5 -101q146 0 258.5 102.5t144.5 251.5q31 149 -39.5 244.5t-216.5 95.5q-148 0 -254.5 -100t-138.5 -250z" />
<glyph unicode="&#xf1;" d="M129 0l16 74h144l145 692q-19 -4 -51.5 -12.5t-58 -13t-52.5 -5.5l4 72q124 4 185 63q1 1 6.5 6t6.5 6t6 4.5t7.5 4.5t7 3t8.5 2.5t9 0.5q31 0 14 -80l-16 -76q248 119 385 119q139 0 187 -76t8 -266l-95 -444h144l-17 -74h-383l17 74h159l89 418q7 30 10.5 47.5t8 46 t5 45.5t-1 41t-7.5 38.5t-17 30.5t-27.5 24.5t-40.5 14.5t-55 6q-154 0 -387 -131l-123 -581h159l-16 -74h-383zM526 1049q13 84 66 143t137 59q63 0 148 -57q29 -19 43 -28t36.5 -18t40.5 -9q43 0 69.5 36.5t37.5 84.5h88q-15 -86 -70 -146.5t-141 -60.5q-58 0 -147 63 q-76 49 -117 49q-45 0 -72.5 -35t-34.5 -81h-84z" />
<glyph unicode="&#xf2;" d="M272 418q40 186 189.5 314t335.5 128q123 0 209.5 -59t119.5 -160t7 -223q-39 -186 -189 -314.5t-336 -128.5q-185 0 -280 128t-56 315zM358 418q-32 -153 42 -261t225 -108q152 0 271 108t151 261q33 153 -40 260.5t-225 107.5t-271.5 -107.5t-152.5 -260.5zM582 1229 l94 92l295 -291l-60 -61z" />
<glyph unicode="&#xf3;" d="M272 418q40 186 189.5 314t335.5 128q123 0 209.5 -59t119.5 -160t7 -223q-39 -186 -189 -314.5t-336 -128.5q-185 0 -280 128t-56 315zM358 418q-32 -153 42 -261t225 -108q152 0 271 108t151 261q33 153 -40 260.5t-225 107.5t-271.5 -107.5t-152.5 -260.5zM696 1030 l418 291l57 -92l-440 -260z" />
<glyph unicode="&#xf4;" d="M272 418q40 186 189.5 314t335.5 128q123 0 209.5 -59t119.5 -160t7 -223q-39 -186 -189 -314.5t-336 -128.5q-185 0 -280 128t-56 315zM358 418q-32 -153 42 -261t225 -108q152 0 271 108t151 261q33 153 -40 260.5t-225 107.5t-271.5 -107.5t-152.5 -260.5zM494 1020 l401 297l274 -297l-57 -47l-248 201l-334 -201z" />
<glyph unicode="&#xf5;" d="M272 418q40 186 189.5 314t335.5 128q123 0 209.5 -59t119.5 -160t7 -223q-39 -186 -189 -314.5t-336 -128.5q-185 0 -280 128t-56 315zM358 418q-32 -153 42 -261t225 -108q152 0 271 108t151 261q33 153 -40 260.5t-225 107.5t-271.5 -107.5t-152.5 -260.5zM526 1049 q13 84 66 143t137 59q63 0 148 -57q29 -19 43 -28t36.5 -18t40.5 -9q43 0 69.5 36.5t37.5 84.5h88q-15 -86 -70 -146.5t-141 -60.5q-58 0 -147 63q-76 49 -117 49q-45 0 -72.5 -35t-34.5 -81h-84z" />
<glyph unicode="&#xf6;" d="M272 418q40 186 189.5 314t335.5 128q123 0 209.5 -59t119.5 -160t7 -223q-39 -186 -189 -314.5t-336 -128.5q-185 0 -280 128t-56 315zM358 418q-32 -153 42 -261t225 -108q152 0 271 108t151 261q33 153 -40 260.5t-225 107.5t-271.5 -107.5t-152.5 -260.5zM537 1145 q9 41 44 70.5t76 29.5t65 -29.5t15 -70.5t-45.5 -71t-77.5 -30t-63.5 30t-13.5 71zM979 1145q9 41 44.5 70.5t76.5 29.5t65 -29.5t15 -70.5t-45.5 -71t-77.5 -30t-64 30t-14 71z" />
<glyph unicode="&#xf7;" d="M70 692v90h1089v-90h-1089zM526 420q0 37 25.5 62.5t62.5 25.5t62.5 -25.5t25.5 -62.5t-25.5 -62.5t-62.5 -25.5t-62.5 25.5t-25.5 62.5zM526 1055q0 37 25.5 62.5t62.5 25.5t62.5 -25.5t25.5 -62.5t-25.5 -62.5t-62.5 -25.5t-62.5 25.5t-25.5 62.5z" />
<glyph unicode="&#xf8;" d="M205 -8l121 117q-44 61 -58 143t4 166q40 186 190.5 314t334.5 128q141 0 229 -76l123 119l47 -47l-121 -119q47 -59 62 -146t-4 -173q-39 -186 -189 -314.5t-336 -128.5q-146 0 -239 84l-119 -114zM358 418q-29 -142 33 -248l574 555q-77 61 -183 61 q-152 0 -271.5 -107.5t-152.5 -260.5zM436 121q72 -72 189 -72q152 0 271 108t151 261q33 153 -37 258z" />
<glyph unicode="&#xf9;" d="M264 735l4 72q124 4 185 63q1 1 6.5 6t6.5 6t6 4.5t7.5 4.5t7 3t8.5 2.5t9 0.5q31 0 14 -80l-100 -467q-36 -169 -0.5 -235t147.5 -66q136 0 353 98l131 619q-19 -4 -51.5 -12.5t-58 -13t-52.5 -5.5l4 72q123 4 184 63q1 1 6.5 6t6.5 6t6 4.5t7.5 4.5t7 3t8.5 2.5t9 0.5 q32 0 15 -80l-158 -743h166l-16 -74h-246l14 70q-206 -95 -362 -95q-280 0 -207 342l94 449q-19 -4 -51.5 -12.5t-58 -13t-52.5 -5.5zM582 1229l94 92l295 -291l-60 -61z" />
<glyph unicode="&#xfa;" d="M264 735l4 72q124 4 185 63q1 1 6.5 6t6.5 6t6 4.5t7.5 4.5t7 3t8.5 2.5t9 0.5q31 0 14 -80l-100 -467q-36 -169 -0.5 -235t147.5 -66q136 0 353 98l131 619q-19 -4 -51.5 -12.5t-58 -13t-52.5 -5.5l4 72q123 4 184 63q1 1 6.5 6t6.5 6t6 4.5t7.5 4.5t7 3t8.5 2.5t9 0.5 q32 0 15 -80l-158 -743h166l-16 -74h-246l14 70q-206 -95 -362 -95q-280 0 -207 342l94 449q-19 -4 -51.5 -12.5t-58 -13t-52.5 -5.5zM696 1030l418 291l57 -92l-440 -260z" />
<glyph unicode="&#xfb;" d="M264 735l4 72q124 4 185 63q1 1 6.5 6t6.5 6t6 4.5t7.5 4.5t7 3t8.5 2.5t9 0.5q31 0 14 -80l-100 -467q-36 -169 -0.5 -235t147.5 -66q136 0 353 98l131 619q-19 -4 -51.5 -12.5t-58 -13t-52.5 -5.5l4 72q123 4 184 63q1 1 6.5 6t6.5 6t6 4.5t7.5 4.5t7 3t8.5 2.5t9 0.5 q32 0 15 -80l-158 -743h166l-16 -74h-246l14 70q-206 -95 -362 -95q-280 0 -207 342l94 449q-19 -4 -51.5 -12.5t-58 -13t-52.5 -5.5zM494 1020l401 297l274 -297l-57 -47l-248 201l-334 -201z" />
<glyph unicode="&#xfc;" d="M264 735l4 72q124 4 185 63q1 1 6.5 6t6.5 6t6 4.5t7.5 4.5t7 3t8.5 2.5t9 0.5q31 0 14 -80l-100 -467q-36 -169 -0.5 -235t147.5 -66q136 0 353 98l131 619q-19 -4 -51.5 -12.5t-58 -13t-52.5 -5.5l4 72q123 4 184 63q1 1 6.5 6t6.5 6t6 4.5t7.5 4.5t7 3t8.5 2.5t9 0.5 q32 0 15 -80l-158 -743h166l-16 -74h-246l14 70q-206 -95 -362 -95q-280 0 -207 342l94 449q-19 -4 -51.5 -12.5t-58 -13t-52.5 -5.5zM537 1145q9 41 44 70.5t76 29.5t65 -29.5t15 -70.5t-45.5 -71t-77.5 -30t-63.5 30t-13.5 71zM979 1145q9 41 44.5 70.5t76.5 29.5 t65 -29.5t15 -70.5t-45.5 -71t-77.5 -30t-64 30t-14 71z" />
<glyph unicode="&#xfd;" d="M16 -379l45 70q31 -27 76 -43.5t90 -16.5q25 0 51 10t46 22t44.5 37t38.5 40.5t37 49t30 45t28 44.5l102 160l-215 723h-121l17 74h385l-17 -74h-178l189 -633l413 633h-178l16 74h385l-16 -74h-127l-582 -899q-84 -129 -119 -171q-117 -130 -251 -134q-51 0 -102.5 17 t-86.5 46zM696 1030l418 291l57 -92l-440 -260z" />
<glyph unicode="&#xfe;" d="M94 -418l15 74h127l311 1466q-18 -4 -51.5 -12t-58.5 -12.5t-52 -5.5l4 71q122 4 184 64q30 26 52 26q30 0 14 -79l-92 -435q164 121 297 121q117 0 193 -63.5t99 -162t-1 -214.5q-40 -187 -189.5 -316t-337.5 -129q-116 0 -213 54l-80 -373h201l-14 -74h-408zM412 111 q92 -62 211 -62q151 0 272 109.5t154 263.5q9 53 10 104.5t-15 98.5t-42.5 83t-71 57t-101.5 21q-78 0 -164 -45t-143 -112z" />
<glyph unicode="&#xff;" d="M16 -379l45 70q31 -27 76 -43.5t90 -16.5q25 0 51 10t46 22t44.5 37t38.5 40.5t37 49t30 45t28 44.5l102 160l-215 723h-121l17 74h385l-17 -74h-178l189 -633l413 633h-178l16 74h385l-16 -74h-127l-582 -899q-84 -129 -119 -171q-117 -130 -251 -134q-51 0 -102.5 17 t-86.5 46zM537 1145q9 41 44 70.5t76 29.5t65 -29.5t15 -70.5t-45.5 -71t-77.5 -30t-63.5 30t-13.5 71zM979 1145q9 41 44.5 70.5t76.5 29.5t65 -29.5t15 -70.5t-45.5 -71t-77.5 -30t-64 30t-14 71z" />
<glyph unicode="&#x152;" d="M175 359q-7 105 24 243q36 166 100.5 295.5t141.5 204.5t157 113t158 38q58 0 114 -24h519l-68 -309h-80l14 67q16 74 -9 121t-93 47h-219l-94 -444h184l29 137h80l-76 -352h-80l31 141h-185l-118 -563h157q48 0 74.5 1.5t54.5 9.5t42 20.5t29.5 38.5t25 59.5t20.5 87.5 l16 71h80l-78 -362h-518q-73 -25 -125 -25t-102 21t-97 66.5t-74.5 118.5t-34.5 178zM266.5 470.5q-6.5 -71.5 1 -149.5t32 -136.5t79 -97t135.5 -38.5q45 0 111 25l229 1083q-42 23 -100 23q-80 0 -151 -38.5t-120.5 -97.5t-90.5 -137.5t-64.5 -150t-38.5 -142.5 q-16 -72 -22.5 -143.5z" />
<glyph unicode="&#x153;" d="M148.5 295q2.5 62 13.5 125q16 77 54.5 154t94 141.5t131.5 104.5t158 40q67 0 119 -23.5t72 -72.5h2q91 96 223 96q94 0 151.5 -52t70 -137.5t-8.5 -195.5l-23 -94h-467l-28 -131q-23 -108 8.5 -154.5t132.5 -46.5q132 0 291 119l31 -59q-191 -134 -357 -134 q-60 0 -108.5 23.5t-67.5 71.5q-37 -50 -100 -72.5t-129 -22.5q-67 0 -119.5 26.5t-82 71t-47 102.5t-15 120zM233.5 313.5q-2.5 -51.5 7 -100t32.5 -84.5t65.5 -58t101.5 -22q73 0 118 35.5t56 93.5l99 457q16 77 -12 114t-115 37q-68 0 -127.5 -33.5t-100.5 -88 t-68.5 -116.5t-41.5 -128q-12 -55 -14.5 -106.5zM754 455h397q13 48 17 93.5t-3.5 89t-26.5 76t-56 52.5t-89 20q-87 0 -140 -55.5t-73 -148.5z" />
<glyph unicode="&#x178;" d="M301 0l16 74h275l96 461l-244 620h-120l16 74h393l-16 -74h-187l215 -547l449 547h-190l16 74h393l-16 -74h-119l-510 -620l-96 -461h274l-16 -74h-629zM537 1538q9 41 44 70.5t76 29.5t65 -29.5t15 -70.5t-45.5 -70.5t-77.5 -29.5t-63.5 29.5t-13.5 70.5zM979 1538 q9 41 44.5 70.5t76.5 29.5t65 -29.5t15 -70.5t-45.5 -70.5t-77.5 -29.5t-64 29.5t-14 70.5z" />
<glyph unicode="&#x2c6;" d="M494 1020l401 297l274 -297l-57 -47l-248 201l-334 -201z" />
<glyph unicode="&#x2dc;" d="M526 1049q13 84 66 143t137 59q63 0 148 -57q29 -19 43 -28t36.5 -18t40.5 -9q43 0 69.5 36.5t37.5 84.5h88q-15 -86 -70 -146.5t-141 -60.5q-58 0 -147 63q-76 49 -117 49q-45 0 -72.5 -35t-34.5 -81h-84z" />
<glyph unicode="&#x2000;" horiz-adv-x="857" />
<glyph unicode="&#x2001;" horiz-adv-x="1714" />
<glyph unicode="&#x2002;" horiz-adv-x="857" />
<glyph unicode="&#x2003;" horiz-adv-x="1714" />
<glyph unicode="&#x2004;" horiz-adv-x="571" />
<glyph unicode="&#x2005;" horiz-adv-x="428" />
<glyph unicode="&#x2006;" horiz-adv-x="285" />
<glyph unicode="&#x2007;" horiz-adv-x="285" />
<glyph unicode="&#x2008;" horiz-adv-x="214" />
<glyph unicode="&#x2009;" horiz-adv-x="342" />
<glyph unicode="&#x200a;" horiz-adv-x="95" />
<glyph unicode="&#x2010;" d="M492 578l16 73h491l-16 -73h-491z" />
<glyph unicode="&#x2011;" d="M492 578l16 73h491l-16 -73h-491z" />
<glyph unicode="&#x2012;" d="M492 578l16 73h491l-16 -73h-491z" />
<glyph unicode="&#x2013;" d="M430 578l16 73h615l-17 -73h-614z" />
<glyph unicode="&#x2014;" d="M123 578l16 73h1229l-16 -73h-1229z" />
<glyph unicode="&#x2018;" d="M700 991q19 92 109.5 164t191.5 98l-16 -77q-118 -32 -164 -107q18 6 35 6q48 0 73 -29.5t15 -78.5q-11 -53 -51.5 -88t-93.5 -35q-57 0 -84.5 45t-14.5 102z" />
<glyph unicode="&#x2019;" d="M674 844l16 78q120 34 164 106q-21 -6 -35 -6q-48 0 -73.5 29.5t-16.5 78.5q12 53 53.5 88t94.5 35q57 0 83 -44.5t15 -102.5q-20 -92 -110.5 -164t-190.5 -98z" />
<glyph unicode="&#x201a;" d="M453 -188l18 77q119 33 164 107q-21 -6 -35 -6q-48 0 -74 29.5t-16 78.5q11 53 52 88t95 35q57 0 83.5 -44.5t15.5 -102.5q-20 -92 -110.5 -164t-192.5 -98z" />
<glyph unicode="&#x201c;" d="M498 991q19 92 109.5 164t191.5 98l-17 -77q-118 -32 -164 -107q18 6 35 6q48 0 73 -29.5t15 -78.5q-11 -53 -51.5 -88t-93.5 -35q-57 0 -84 45t-14 102zM903 991q19 92 109.5 164t191.5 98l-16 -77q-118 -32 -164 -107q18 6 35 6q48 0 73 -29.5t15 -78.5 q-11 -53 -52 -88t-94 -35q-57 0 -84 45t-14 102z" />
<glyph unicode="&#x201d;" d="M471 844l16 78q120 34 164 106q-21 -6 -35 -6q-48 0 -73.5 29.5t-16.5 78.5q12 53 53.5 88t94.5 35q57 0 83 -44.5t15 -102.5q-20 -92 -110.5 -164t-190.5 -98zM877 844l16 78q120 34 164 106q-21 -6 -35 -6q-48 0 -73.5 29.5t-16.5 78.5q12 53 53 88t94 35 q57 0 83.5 -44.5t15.5 -102.5q-20 -92 -110.5 -164t-190.5 -98z" />
<glyph unicode="&#x201e;" d="M250 -188l18 77q119 33 164 107q-21 -6 -35 -6q-48 0 -74 29.5t-16 78.5q11 53 52.5 88t95.5 35q57 0 83 -44.5t15 -102.5q-20 -92 -110.5 -164t-192.5 -98zM655 -188l19 77q119 33 164 107q-21 -6 -35 -6q-48 0 -74 29.5t-16 78.5q11 53 52 88t95 35q57 0 83 -44.5 t15 -102.5q-20 -92 -110.5 -164t-192.5 -98z" />
<glyph unicode="&#x2022;" d="M362 516q0 103 74.5 177.5t177.5 74.5t177.5 -74.5t74.5 -177.5q0 -105 -74.5 -178.5t-177.5 -73.5q-106 0 -179 73t-73 179z" />
<glyph unicode="&#x2026;" d="M100 100q10 51 55.5 88t96.5 37t80 -37t18 -88q-10 -51 -55 -88t-96 -37t-80.5 37t-18.5 88zM510 100q10 51 55.5 88t96.5 37t80 -37t18 -88q-10 -51 -55.5 -88t-96.5 -37t-80 37t-18 88zM920 100q10 51 55 88t96 37t80 -37t18 -88q-10 -51 -55 -88t-96 -37t-80 37 t-18 88z" />
<glyph unicode="&#x202f;" horiz-adv-x="342" />
<glyph unicode="&#x2039;" d="M446 614l652 508l43 -53l-590 -455l397 -454l-65 -54z" />
<glyph unicode="&#x203a;" d="M350 160l590 454l-397 455l63 53l438 -508l-653 -508z" />
<glyph unicode="&#x205f;" horiz-adv-x="428" />
<glyph unicode="&#x2122;" d="M272 614l13 58h106l107 499h-70q-36 0 -51.5 -15t-24.5 -58l-16 -72h-57l45 203h444l-45 -203h-55l16 72q10 43 1 58t-46 15h-70l-106 -499h106l-12 -58h-285zM737 614l13 58h67l107 499h-68l12 58h166l47 -281l170 281h179l-13 -58h-65l-107 -499h66l-13 -58h-213l13 58 h76l100 473h-4l-221 -359l-72 351h-4l-99 -465h78l-12 -58h-203z" />
<glyph unicode="&#xe000;" horiz-adv-x="839" d="M0 0v840h840v-840h-840z" />
<glyph unicode="&#xfb01;" d="M90 0l16 74h248l146 688h-248l16 74h248l27 129q38 174 107 243.5t194 69.5q39 0 131 -11t145 -7l-80 -84q-127 30 -213 30q-45 0 -78.5 -14t-53 -34t-34 -54t-21.5 -62t-15 -69q-3 -14 -4 -21l-25 -116h229l-16 -74h-229l-146 -688h148l-17 -74h-475zM719 0l16 74h209 l146 688h-187l17 74q6 0 43 -1.5t56.5 -0.5t49 9.5t47.5 26.5q1 1 6.5 6t6.5 6t6 4.5t7.5 4.5t7 3t8.5 2.5t9 0.5q32 0 15 -80l-158 -743h158l-17 -74h-446zM1096 1106q9 46 48 78.5t85 32.5q44 0 70.5 -32.5t17.5 -78.5q-9 -44 -50 -77.5t-85 -33.5q-45 0 -70 33t-16 78z " />
<glyph unicode="&#xfb02;" d="M90 0l16 74h248l146 688h-248l16 74h248l27 129q38 174 107 243.5t194 69.5q46 0 109.5 -10.5t72.5 -10.5q121 0 186 60q26 26 48 26q32 0 16 -79l-252 -1190h158l-17 -74h-446l16 74h209l242 1138q-85 -30 -172 -24l-78 6l-109 12q-43 5 -76.5 -7t-53.5 -34.5 t-34.5 -56.5t-22.5 -67.5t-16 -71.5q0 -4 -0.5 -6t-1 -5t-1.5 -6l-25 -116h229l-16 -74h-229l-146 -688h148l-17 -74h-475z" />
</font>
</defs>
</svg>
